<svg width="158" height="158" viewBox="0 0 158 158" xmlns="http://www.w3.org/2000/svg">
<path d="M78.089 1.01295C78.4436 0.229384 79.5564 0.229386 79.911 1.01295L87.7596 18.3545C88.0559 19.0092 88.9255 19.1469 89.4097 18.6158L102.233 4.54839C102.812 3.91276 103.871 4.25664 103.966 5.11144L106.071 24.0295C106.151 24.7438 106.935 25.1435 107.56 24.788L124.103 15.3717C124.85 14.9462 125.75 15.6003 125.577 16.4426L121.733 35.0855C121.588 35.7893 122.211 36.4119 122.915 36.2668L141.557 32.4233C142.4 32.2497 143.054 33.1499 142.628 33.8974L133.212 50.4401C132.857 51.0647 133.256 51.8491 133.97 51.9286L152.889 54.0342C153.743 54.1294 154.087 55.1877 153.452 55.7671L139.384 68.5903C138.853 69.0745 138.991 69.9441 139.646 70.2404L156.987 78.089C157.771 78.4436 157.771 79.5564 156.987 79.911L139.646 87.7596C138.991 88.0559 138.853 88.9255 139.384 89.4097L153.452 102.233C154.087 102.812 153.743 103.871 152.889 103.966L133.97 106.071C133.256 106.151 132.857 106.935 133.212 107.56L142.628 124.103C143.054 124.85 142.4 125.75 141.557 125.577L122.915 121.733C122.211 121.588 121.588 122.211 121.733 122.915L125.577 141.557C125.75 142.4 124.85 143.054 124.103 142.628L107.56 133.212C106.935 132.857 106.151 133.256 106.071 133.97L103.966 152.889C103.871 153.743 102.812 154.087 102.233 153.452L89.4097 139.384C88.9255 138.853 88.0559 138.991 87.7596 139.646L79.911 156.987C79.5564 157.771 78.4436 157.771 78.089 156.987L70.2404 139.646C69.9441 138.991 69.0745 138.853 68.5903 139.384L55.7671 153.452C55.1877 154.087 54.1294 153.743 54.0342 152.889L51.9286 133.97C51.8491 133.256 51.0647 132.857 50.4401 133.212L33.8974 142.628C33.1499 143.054 32.2497 142.4 32.4233 141.557L36.2668 122.915C36.4119 122.211 35.7893 121.588 35.0855 121.733L16.4426 125.577C15.6003 125.75 14.9462 124.85 15.3717 124.103L24.788 107.56C25.1435 106.935 24.7438 106.151 24.0295 106.071L5.11144 103.966C4.25663 103.871 3.91276 102.812 4.54839 102.233L18.6158 89.4097C19.1469 88.9255 19.0092 88.0559 18.3545 87.7596L1.01295 79.911C0.229384 79.5564 0.229386 78.4436 1.01295 78.089L18.3545 70.2404C19.0092 69.9441 19.1469 69.0745 18.6158 68.5903L4.54839 55.7671C3.91276 55.1877 4.25664 54.1294 5.11144 54.0342L24.0295 51.9286C24.7438 51.8491 25.1435 51.0647 24.788 50.4401L15.3717 33.8974C14.9462 33.1499 15.6003 32.2497 16.4426 32.4233L35.0855 36.2668C35.7893 36.4119 36.4119 35.7893 36.2668 35.0855L32.4233 16.4426C32.2497 15.6003 33.1499 14.9462 33.8974 15.3717L50.4401 24.788C51.0647 25.1435 51.8491 24.7438 51.9286 24.0295L54.0342 5.11144C54.1294 4.25663 55.1877 3.91276 55.7671 4.54839L68.5903 18.6158C69.0745 19.1469 69.9441 19.0092 70.2404 18.3545L78.089 1.01295Z"/>
</svg>
