<svg width="80" height="80" viewBox="0 0 80 80" xmlns="http://www.w3.org/2000/svg">
<path fill-rule="evenodd" clip-rule="evenodd" d="M0 39.6144C0 61.4516 17.9501 79.2287 40 79.2287C62.0499 79.2287 80 61.4516 80 39.6144C80 17.7771 62.0499 0 40 0C17.9501 0 0 17.7771 0 39.6144ZM1.51431 39.6144C1.51431 18.6184 18.7996 1.49971 40 1.49971C61.2004 1.49971 78.4118 18.6184 78.4118 39.6144C78.4118 60.6103 61.1634 77.6924 39.9631 77.6924C18.7627 77.6924 1.51431 60.6103 1.51431 39.6144ZM30.6557 24.3612L26.1867 19.9352H55.1802V32.7011L46.7961 23.2639H40.8866V38.4073L48.6059 30.6527V48.3566L40.8866 40.602V54.8675L46.7961 59.2935H26.1867L30.6557 54.8675V24.3612Z" />
</svg>
