<svg width="50" height="50" viewBox="0 0 50 50" xmlns="http://www.w3.org/2000/svg">
<path fill-rule="evenodd" clip-rule="evenodd" d="M12.0001 0.999935C12.0001 0.447676 12.4478 0 13.0001 0C16.3113 0 19.5444 1.59019 21.9324 3.81894C22.7059 4.5409 23.4066 5.34509 24 6.20368V1C24 0.447715 24.4477 0 25 0C25.5523 0 26 0.447715 26 1V6.20377C26.5934 5.34514 27.2941 4.54092 28.0677 3.81895C30.4556 1.59019 33.6888 0 36.9999 0C37.5522 0 37.9999 0.447676 37.9999 0.999935L38 9.12501L38 13.2344L37.9999 14.5215L37.9999 14.8757V14.9684L37.9999 14.992V14.998V14.9995V14.9999C37.9999 15 37.9999 15 36.9999 15L37.9999 15C37.9999 15.5523 37.5522 16 36.9999 16C34.0782 16 31.3326 16.4933 29.3355 17.9357C27.4066 19.3288 26.0069 21.7332 26 25.9686L26.0001 26L26 26.0116V33.2385C26.4715 32.7602 27.0082 32.3361 27.5899 31.9677C29.6562 30.6591 32.3512 30 35 30C35.3466 30 35.6684 30.1795 35.8507 30.4743C36.0329 30.7691 36.0494 31.1372 35.8944 31.4472L26.8944 49.4473C26.725 49.7861 26.3787 50.0001 25.9999 50.0001L25 50V50.0001H24C23.6212 50.0001 23.275 49.7861 23.1056 49.4473L14.1056 31.4472C13.9506 31.1372 13.9671 30.7691 14.1493 30.4743C14.3316 30.1795 14.6534 30 15 30C17.6488 30 20.3438 30.6591 22.4101 31.9677C22.9918 32.3361 23.5285 32.7603 24 33.2385V26L24 25.9496C23.989 21.726 22.5906 19.3267 20.6646 17.9357C18.6675 16.4933 15.9218 16 13.0001 16C12.4478 16 12.0001 15.5523 12.0001 15L13.0001 15C12.0001 15 12.0001 15 12.0001 14.9999L12.0001 14.9995V14.998L12.0001 14.992L12.0001 14.9684L12.0001 14.8757L12.0001 14.5215L12 13.2344L12 10.5056L12 10.5L12 10.4944L12 9.12501L12 6.00756C12 6.00504 12 6.00252 12 6C12 5.99747 12 5.99495 12 5.99242L12.0001 0.999935ZM14 7.06136C14.4711 7.11204 14.9858 7.19196 15.4914 7.29307C16.4101 7.47681 17.1769 7.70646 17.5528 7.89439C18.0468 8.14136 18.6475 7.9411 18.8944 7.44711C19.1414 6.95312 18.9412 6.35246 18.4472 6.10549C17.8231 5.79349 16.8399 5.52316 15.8836 5.33191C15.2666 5.20852 14.6111 5.10828 14 5.05136L14.0001 2.0589C16.3633 2.33417 18.7169 3.55365 20.5677 5.28106C22.6811 7.25354 23.9893 9.74457 24 11.9725L24 12L24 18.5135C23.3939 17.6419 22.6653 16.9136 21.8355 16.3143C19.6023 14.7014 16.7708 14.1243 14.0001 14.0186L14 13.2344L14 11.5134C16.3569 11.5812 17.9265 11.9221 19.4855 12.8575C19.9591 13.1416 20.5733 12.9881 20.8575 12.5145C21.1416 12.0409 20.9881 11.4267 20.5145 11.1425C18.534 9.95419 16.5642 9.58115 14 9.51248L14 9.12499L14 7.06136ZM25 49L25.0001 48L25.382 48L33.3323 32.0994C31.584 32.3092 29.942 32.8454 28.6601 33.6573C26.9964 34.711 26.003 36.1739 26 37.9919V41C26 41.5523 25.5523 42 25 42C24.4477 42 24 41.5523 24 41L24 38.0001C24 36.1783 23.0061 34.7125 21.3399 33.6573C20.058 32.8454 18.416 32.3092 16.6677 32.0994L24.618 48.0001H25V49ZM26 18.5136C26.6061 17.642 27.3347 16.9136 28.1645 16.3143C30.3978 14.7014 33.2292 14.1243 36 14.0186L36 13.2344L36 9.12499L36 2.0589C33.6367 2.33417 31.2831 3.55365 29.4323 5.28105C27.3159 7.25635 26.007 9.75168 26 11.9821L26.0001 12L26 12.0116V18.5136Z"/>
</svg>
