<svg width="50" height="50" viewBox="0 0 50 50" xmlns="http://www.w3.org/2000/svg">
<path fill-rule="evenodd" clip-rule="evenodd" d="M22 25C22 28.842 21.0615 32.2234 19.649 34.5776C18.2126 36.9716 16.5068 38 15 38C13.4932 38 11.7874 36.9716 10.351 34.5776C10.0122 34.0128 9.70059 33.389 9.4227 32.7138C10.1753 33.5303 11.0572 34 12 34C14.7614 34 17 29.9706 17 25C17 20.0294 14.7614 16 12 16C11.0572 16 10.1753 16.4697 9.4227 17.2862C9.70059 16.611 10.0122 15.9872 10.351 15.4224C11.7874 13.0284 13.4932 12 15 12C16.5068 12 18.2126 13.0284 19.649 15.4224C21.0615 17.7766 22 21.158 22 25ZM24 25C24 33.2843 19.9706 40 15 40C10.0294 40 6 33.2843 6 25C6 16.7157 10.0294 10 15 10C19.9706 10 24 16.7157 24 25ZM42 25C42 28.842 41.0615 32.2234 39.649 34.5776C38.2126 36.9716 36.5068 38 35 38C33.4932 38 31.7874 36.9716 30.351 34.5776C30.0122 34.0128 29.7006 33.389 29.4227 32.7138C30.1753 33.5303 31.0572 34 32 34C34.7614 34 37 29.9706 37 25C37 20.0294 34.7614 16 32 16C31.0572 16 30.1753 16.4697 29.4227 17.2862C29.7006 16.611 30.0122 15.9872 30.351 15.4224C31.7874 13.0284 33.4932 12 35 12C36.5068 12 38.2126 13.0284 39.649 15.4224C41.0615 17.7766 42 21.158 42 25ZM44 25C44 33.2843 39.9706 40 35 40C30.0294 40 26 33.2843 26 25C26 16.7157 30.0294 10 35 10C39.9706 10 44 16.7157 44 25ZM12 23C13.1046 23 14 22.1046 14 21C14 19.8954 13.1046 19 12 19C10.8954 19 10 19.8954 10 21C10 22.1046 10.8954 23 12 23ZM34 21C34 22.1046 33.1046 23 32 23C30.8954 23 30 22.1046 30 21C30 19.8954 30.8954 19 32 19C33.1046 19 34 19.8954 34 21Z" />
</svg>
