<svg width="100" height="100" viewBox="0 0 100 100" xmlns="http://www.w3.org/2000/svg">
<path fill-rule="evenodd" clip-rule="evenodd" d="M50 7C50.7242 7 51.3919 7.39151 51.7454 8.02355L54.9793 13.8042C56.6282 16.7517 60.384 17.758 63.2857 16.0299L68.9767 12.6406C69.5989 12.2701 70.3728 12.2648 71 12.6269C71.6272 12.989 72.0096 13.6619 71.9998 14.3861L71.9101 21.0092C71.8644 24.3862 74.6138 27.1356 77.9908 27.0899L84.614 27.0002C85.3381 26.9904 86.011 27.3728 86.3731 28C86.7352 28.6272 86.73 29.4011 86.3594 30.0234L82.9701 35.7143C81.242 38.616 82.2484 42.3718 85.1958 44.0207L90.9765 47.2546C91.5233 47.5605 91.8951 48.1049 91.9811 48.7255C92.0671 49.3461 91.8573 49.9712 91.4142 50.4142L87.4142 54.4142C86.6332 55.1953 85.3669 55.1953 84.5858 54.4142C83.8048 53.6332 83.8048 52.3668 84.5858 51.5858L86.7167 49.4549L83.2429 47.5116C78.3305 44.7634 76.6532 38.5038 79.5334 33.6676L81.0934 31.0482L78.045 31.0895C72.4166 31.1657 67.8343 26.5834 67.9105 20.955L67.9518 17.9066L65.3324 19.4666C60.4962 22.3468 54.2366 20.6695 51.4885 15.7571L50 13.0965L48.5116 15.7571C45.7634 20.6695 39.5038 22.3468 34.6676 19.4666L32.0482 17.9066L32.0895 20.955C32.1658 26.5834 27.5834 31.1657 21.955 31.0895L18.9066 31.0482L20.4666 33.6676C23.3468 38.5038 21.6696 44.7634 16.7571 47.5116L13.5698 49.2946L16.2494 51.4383C17.1119 52.1283 17.2518 53.3869 16.5618 54.2494C15.8717 55.1119 14.6131 55.2518 13.7506 54.5617L8.75062 50.5617C8.23088 50.1459 7.95205 49.4988 8.00679 48.8355C8.06153 48.1722 8.44269 47.5795 9.02356 47.2546L14.8042 44.0207C17.7517 42.3718 18.758 38.616 17.0299 35.7143L13.6406 30.0234C13.2701 29.4011 13.2648 28.6272 13.6269 28C13.9891 27.3728 14.6619 26.9904 15.3861 27.0002L22.0092 27.0899C25.3862 27.1356 28.1356 24.3862 28.0899 21.0092L28.0002 14.3861C27.9904 13.6619 28.3728 12.989 29 12.6269C29.6272 12.2648 30.4011 12.2701 31.0234 12.6406L36.7143 16.0299C39.616 17.758 43.3718 16.7517 45.0207 13.8042L48.2546 8.02355C48.6082 7.39151 49.2758 7 50 7ZM50 27C37.8497 27 28 36.8497 28 49C28 53.8036 29.5396 58.2477 32.1522 61.8657C32.4221 61.6467 32.6668 61.4083 32.8884 61.1621C33.3313 60.67 33.6563 60.1712 33.8693 59.7952C33.9747 59.6092 34.0496 59.4588 34.0952 59.362C34.118 59.3137 34.1333 59.2793 34.1412 59.2609L34.1467 59.2482L34.1452 59.2518L34.1442 59.2543L34.1437 59.2557C34.1436 59.2558 34.1436 59.2559 34.1467 59.2572H37.8533L37.8562 59.2559L37.8563 59.2557L37.8558 59.2543L37.8548 59.2518L37.8533 59.2482L37.8588 59.2609C37.8667 59.2793 37.882 59.3137 37.9048 59.362C37.9504 59.4588 38.0253 59.6092 38.1307 59.7952C38.3437 60.1712 38.6687 60.67 39.1116 61.1621C39.9945 62.1431 41.244 63 43 63C44.756 63 46.0055 62.1431 46.8884 61.1621C47.3313 60.67 47.6563 60.1712 47.8693 59.7952C47.9747 59.6092 48.0496 59.4588 48.0952 59.362C48.118 59.3137 48.1333 59.2793 48.1412 59.2609L48.1467 59.2482L48.1452 59.2518L48.1442 59.2543L48.1437 59.2557L48.1438 59.2559L48.1467 59.2572H51.8533L51.856 59.256L51.8563 59.2557L51.8558 59.2543L51.8548 59.2518L51.8533 59.2482L51.8588 59.2609C51.8667 59.2793 51.882 59.3137 51.9048 59.362C51.9504 59.4588 52.0253 59.6092 52.1307 59.7952C52.3437 60.1712 52.6687 60.67 53.1116 61.1621C53.9945 62.1431 55.244 63 57 63C58.756 63 60.0055 62.1431 60.8884 61.1621C61.3313 60.67 61.6563 60.1712 61.8693 59.7952C61.9747 59.6092 62.0496 59.4588 62.0952 59.362L62.1095 59.3315L62.124 59.2998C62.1315 59.2831 62.1373 59.27 62.1412 59.2609L62.1467 59.2482L62.1452 59.2518L62.1442 59.2543L62.1437 59.2557L62.144 59.256L62.1467 59.2572H65.8533C65.8564 59.2559 65.8564 59.2558 65.8563 59.2557L65.8558 59.2543L65.8548 59.2518L65.8533 59.2482L65.8588 59.2609C65.8667 59.2793 65.882 59.3137 65.9048 59.362C65.9504 59.4588 66.0253 59.6092 66.1307 59.7952C66.3437 60.1712 66.6687 60.67 67.1116 61.1621C67.3332 61.4083 67.5779 61.6467 67.8479 61.8657C70.4604 58.2477 72 53.8036 72 49C72 36.8497 62.1503 27 50 27ZM71.9717 62.9075C74.5228 58.8855 76 54.1153 76 49C76 34.6406 64.3594 23 50 23C35.6406 23 24 34.6406 24 49C24 54.1153 25.4772 58.8855 28.0283 62.9075C26.77 62.6606 25.8221 61.9515 25.1116 61.1621C24.6687 60.67 24.3437 60.1712 24.1307 59.7952C24.0253 59.6092 23.9504 59.4588 23.9048 59.362C23.882 59.3137 23.8667 59.2793 23.8588 59.2609L23.8533 59.2482L23.8548 59.2518L23.8558 59.2543L23.8563 59.2557L23.8563 59.2558L23.8533 59.2572H20.1467C20.1436 59.2559 20.1436 59.2558 20.1437 59.2557L20.1442 59.2543L20.1452 59.2518L20.1467 59.2482L20.1412 59.2609C20.1333 59.2793 20.118 59.3137 20.0952 59.362C20.0496 59.4588 19.9747 59.6092 19.8693 59.7952C19.6563 60.1712 19.3313 60.67 18.8884 61.1621C18.0055 62.1431 16.756 63 15 63V67C18.244 67 20.4945 65.3569 21.8616 63.8379C21.9086 63.7856 21.9548 63.7334 22 63.6812C22.0452 63.7334 22.0914 63.7856 22.1384 63.8379C23.5055 65.3569 25.756 67 29 67C31.413 67 33.2763 66.0909 34.6352 65H34.9002C34.8593 64.9613 34.8184 64.9224 34.7777 64.8834C35.1866 64.5427 35.5474 64.187 35.8616 63.8379C35.9086 63.7856 35.9548 63.7334 36 63.6812C36.0452 63.7334 36.0914 63.7856 36.1384 63.8379C37.5055 65.3569 39.756 67 43 67C46.244 67 48.4945 65.3569 49.8616 63.8379C49.9086 63.7856 49.9548 63.7334 50 63.6812C50.0452 63.7334 50.0914 63.7856 50.1384 63.8379C51.5055 65.3569 53.756 67 57 67C60.244 67 62.4945 65.3569 63.8616 63.8379C63.9086 63.7856 63.9548 63.7334 64 63.6812C64.0184 63.7024 64.037 63.7237 64.0557 63.745C64.0717 63.7632 64.0878 63.7814 64.1041 63.7996C64.1155 63.8124 64.1269 63.8251 64.1384 63.8379C64.4526 64.187 64.8134 64.5427 65.2223 64.8834C65.1988 64.9059 65.1754 64.9283 65.1518 64.9507C65.1345 64.9672 65.1171 64.9836 65.0998 65H65.3648C66.7237 66.0909 68.587 67 71 67C74.244 67 76.4945 65.3569 77.8616 63.8379C77.9086 63.7856 77.9548 63.7334 78 63.6812C78.0452 63.7334 78.0914 63.7856 78.1384 63.8379C79.5055 65.3569 81.756 67 85 67V63C83.244 63 81.9945 62.1431 81.1116 61.1621C80.6687 60.67 80.3437 60.1712 80.1307 59.7952C80.0253 59.6092 79.9504 59.4588 79.9048 59.362C79.9005 59.353 79.8965 59.3445 79.8928 59.3364C79.8846 59.3189 79.8777 59.3037 79.8721 59.291L79.8588 59.2609L79.8563 59.2557C79.8564 59.2557 79.8564 59.2558 79.8562 59.2559C79.856 59.256 79.8553 59.2564 79.8533 59.2572H76.1467C76.1436 59.2559 76.1436 59.2558 76.1436 59.2557L76.1442 59.2543L76.1412 59.2609C76.1368 59.271 76.1303 59.2859 76.1215 59.3052C76.1143 59.3212 76.1055 59.3402 76.0952 59.362C76.0496 59.4588 75.9747 59.6092 75.8693 59.7952C75.6563 60.1712 75.3313 60.67 74.8884 61.1621C74.1779 61.9515 73.23 62.6606 71.9717 62.9075ZM28.8616 75.8379C27.4945 77.3569 25.244 79 22 79V75C23.756 75 25.0055 74.1431 25.8884 73.1621C26.3313 72.67 26.6563 72.1712 26.8693 71.7952C26.9747 71.6092 27.0496 71.4588 27.0952 71.362C27.118 71.3137 27.1333 71.2793 27.1412 71.2609L27.1467 71.2482L27.1452 71.2518L27.1442 71.2543L27.1437 71.2557C27.1436 71.2558 27.1436 71.2559 27.1467 71.2572H30.8533C30.8564 71.2559 30.8564 71.2558 30.8563 71.2557L30.8558 71.2543L30.8548 71.2518L30.8533 71.2482L30.8588 71.2609C30.8626 71.2697 30.8681 71.2821 30.8752 71.298C30.883 71.3154 30.8929 71.3368 30.9048 71.362C30.9504 71.4588 31.0253 71.6092 31.1307 71.7952C31.3437 72.1712 31.6687 72.67 32.1116 73.1621C32.9945 74.1431 34.244 75 36 75C37.756 75 39.0055 74.1431 39.8884 73.1621C40.3313 72.67 40.6563 72.1712 40.8693 71.7952C40.9747 71.6092 41.0496 71.4588 41.0952 71.362C41.118 71.3137 41.1333 71.2793 41.1412 71.2609L41.1467 71.2482L41.1452 71.2518L41.1442 71.2543L41.1437 71.2557L41.1438 71.2559L41.1467 71.2572H44.8533L44.8562 71.2559L44.8563 71.2557L44.8558 71.2543L44.8548 71.2518L44.8533 71.2482L44.8588 71.2609C44.8667 71.2793 44.882 71.3137 44.9048 71.362C44.9504 71.4588 45.0253 71.6092 45.1307 71.7952C45.3437 72.1712 45.6687 72.67 46.1116 73.1621C46.9945 74.1431 48.244 75 50 75C51.756 75 53.0055 74.1431 53.8884 73.1621C54.3313 72.67 54.6563 72.1712 54.8693 71.7952C54.9747 71.6092 55.0496 71.4588 55.0952 71.362C55.1107 71.3292 55.1227 71.3028 55.1313 71.2835L55.1412 71.2609L55.1467 71.2482L55.1452 71.2518L55.1442 71.2543L55.1437 71.2557C55.1436 71.2558 55.1436 71.2558 55.1443 71.2561L55.1467 71.2572H58.8533C58.8564 71.2559 58.8564 71.2558 58.8563 71.2557L58.8558 71.2543L58.8548 71.2518L58.8533 71.2482L58.8588 71.2609C58.8667 71.2793 58.882 71.3137 58.9048 71.362C58.9504 71.4588 59.0253 71.6092 59.1307 71.7952C59.3437 72.1712 59.6687 72.67 60.1116 73.1621C60.9945 74.1431 62.244 75 64 75C65.756 75 67.0055 74.1431 67.8884 73.1621C68.3313 72.67 68.6563 72.1712 68.8693 71.7952C68.9747 71.6092 69.0496 71.4588 69.0952 71.362C69.118 71.3137 69.1333 71.2793 69.1412 71.2609L69.1467 71.2482L69.1452 71.2518L69.1442 71.2543L69.1437 71.2557C69.1436 71.2558 69.1436 71.2558 69.1441 71.2561C69.1445 71.2563 69.1453 71.2566 69.1467 71.2572H72.8533C72.8564 71.2559 72.8564 71.2558 72.8564 71.2557L72.8558 71.2543L72.8588 71.2609C72.8627 71.2699 72.8684 71.2828 72.8758 71.2993C72.8835 71.3164 72.8932 71.3374 72.9048 71.362C72.9504 71.4588 73.0253 71.6092 73.1307 71.7952C73.3437 72.1712 73.6687 72.67 74.1116 73.1621C74.9945 74.1431 76.244 75 78 75V79C74.756 79 72.5055 77.3569 71.1384 75.8379C71.0914 75.7856 71.0452 75.7334 71 75.6812C70.9768 75.7079 70.9534 75.7347 70.9298 75.7615C70.9073 75.7869 70.8845 75.8124 70.8616 75.8379C69.4945 77.3569 67.244 79 64 79C60.756 79 58.5055 77.3569 57.1384 75.8379C57.0914 75.7856 57.0452 75.7334 57 75.6812C56.9548 75.7334 56.9086 75.7856 56.8616 75.8379C55.4945 77.3569 53.244 79 50 79C46.756 79 44.5055 77.3569 43.1384 75.8379C43.1133 75.81 43.0884 75.782 43.0637 75.7541C43.0423 75.7298 43.021 75.7055 43 75.6812C42.9548 75.7334 42.9086 75.7856 42.8616 75.8379C41.4945 77.3569 39.244 79 36 79C32.756 79 30.5055 77.3569 29.1384 75.8379C29.0914 75.7856 29.0452 75.7334 29 75.6812C28.9548 75.7334 28.9086 75.7856 28.8616 75.8379ZM29 91C32.244 91 34.4945 89.3569 35.8616 87.8379L35.912 87.7816C35.9308 87.7603 35.9496 87.739 35.9682 87.7178C35.9788 87.7056 35.9894 87.6934 36 87.6812C36.0452 87.7334 36.0914 87.7856 36.1384 87.8379C37.5055 89.3569 39.756 91 43 91C46.244 91 48.4945 89.3569 49.8616 87.8379C49.9086 87.7856 49.9548 87.7334 50 87.6812C50.0452 87.7334 50.0914 87.7856 50.1384 87.8379C51.5055 89.3569 53.756 91 57 91C60.244 91 62.4945 89.3569 63.8616 87.8379C63.9086 87.7856 63.9548 87.7334 64 87.6812C64.0452 87.7334 64.0914 87.7856 64.1384 87.8379C65.5055 89.3569 67.756 91 71 91V87C69.244 87 67.9945 86.1431 67.1116 85.1621C66.6687 84.67 66.3437 84.1712 66.1307 83.7952C66.0253 83.6092 65.9504 83.4588 65.9048 83.362C65.882 83.3137 65.8667 83.2793 65.8588 83.2609L65.8558 83.2543L65.8563 83.2557L65.8561 83.256L65.8533 83.2572H62.1467L62.1439 83.2559L62.1437 83.2557L62.1442 83.2543L62.1412 83.2609C62.1333 83.2793 62.118 83.3137 62.0952 83.362C62.0496 83.4588 61.9747 83.6092 61.8693 83.7952C61.6563 84.1712 61.3313 84.67 60.8884 85.1621C60.0055 86.1431 58.756 87 57 87C55.244 87 53.9945 86.1431 53.1116 85.1621C52.6687 84.67 52.3437 84.1712 52.1307 83.7952C52.0253 83.6092 51.9504 83.4588 51.9048 83.362C51.894 83.3391 51.8849 83.3194 51.8774 83.3029C51.8692 83.2847 51.863 83.2706 51.8588 83.2609L51.8558 83.2543L51.8563 83.2557L51.856 83.256L51.8533 83.2572H48.1467C48.1436 83.2559 48.1436 83.2558 48.1437 83.2557L48.1442 83.2543L48.1412 83.2609C48.1389 83.2662 48.1361 83.2727 48.1326 83.2805C48.1302 83.286 48.1275 83.2921 48.1244 83.2988C48.1167 83.316 48.107 83.3372 48.0952 83.362C48.0496 83.4588 47.9747 83.6092 47.8693 83.7952C47.6563 84.1712 47.3313 84.67 46.8884 85.1621C46.0055 86.1431 44.756 87 43 87C41.244 87 39.9945 86.1431 39.1116 85.1621C38.6687 84.67 38.3437 84.1712 38.1307 83.7952C38.0253 83.6092 37.9504 83.4588 37.9048 83.362C37.882 83.3137 37.8667 83.2793 37.8588 83.2609L37.8558 83.2543L37.8563 83.2557C37.8564 83.2558 37.8564 83.2559 37.8533 83.2572H34.1467L34.1444 83.2562L34.1438 83.2559L34.1437 83.2557L34.1442 83.2543L34.1412 83.2609C34.1333 83.2793 34.118 83.3137 34.0952 83.362C34.0496 83.4588 33.9747 83.6092 33.8693 83.7952C33.6563 84.1712 33.3313 84.67 32.8884 85.1621C32.0055 86.1431 30.756 87 29 87V91ZM32 40C32 39.4477 32.4477 39 33 39H33.7538C33.9173 39 34.078 38.9804 34.2372 38.943C35.1393 38.731 38.4351 38 41 38C43.1103 38 45.2206 38.4948 46.2867 38.7883C46.3707 38.7474 46.4593 38.7064 46.5525 38.6659C47.3676 38.3115 48.5133 38 50 38C51.4867 38 52.6324 38.3115 53.4475 38.6659C53.5125 38.6941 53.5753 38.7226 53.6358 38.7512C54.514 38.455 56.3021 38 59.0002 38C62.2416 38 64.8264 38.6567 65.6901 38.9058C65.8967 38.9653 66.1098 39 66.3247 39H67.0002C67.5525 39 68.0002 39.4477 68.0002 40V40.9446C68.0002 41.5275 67.5277 42 66.9448 42C66.407 42 65.9552 42.4044 65.8959 42.9388L65.3955 47.4417C65.1705 49.4675 63.4582 51 61.42 51H55.6807C53.6004 51 51.8673 49.4053 51.6945 47.3322L51.2618 42.1394C50.9355 42.0605 50.5173 42 50 42C49.4828 42 49.0646 42.0605 48.7384 42.1394L48.3056 47.3322C48.1329 49.4053 46.3998 51 44.3195 51H38.5802C36.542 51 34.8297 49.4675 34.6046 47.4417L34.1043 42.9388C34.0449 42.4044 33.5932 42 33.0554 42C32.4725 42 32 41.5275 32 40.9446V40ZM46 42.5C46 43.3284 45.3284 44 44.5 44C43.6716 44 43 43.3284 43 42.5C43 41.6716 43.6716 41 44.5 41C45.3284 41 46 41.6716 46 42.5ZM43.2111 54.1056C43.7051 53.1176 44.9065 52.7172 45.8944 53.2111C46.6269 53.5774 47.5603 54 50 54C52.4397 54 53.3731 53.5774 54.1056 53.2111C55.0935 52.7172 56.2949 53.1176 56.7889 54.1056C57.2828 55.0935 56.8824 56.2949 55.8944 56.7889C54.6269 57.4226 53.0831 58 50 58C46.9169 58 45.3731 57.4226 44.1056 56.7889C43.1176 56.2949 42.7172 55.0935 43.2111 54.1056ZM61.5 44C62.3284 44 63 43.3284 63 42.5C63 41.6716 62.3284 41 61.5 41C60.6716 41 60 41.6716 60 42.5C60 43.3284 60.6716 44 61.5 44Z"/>
</svg>
