<svg width="50" height="50" viewBox="0 0 50 50" xmlns="http://www.w3.org/2000/svg">
<path fill-rule="evenodd" clip-rule="evenodd" d="M5.75745 0.970143C5.82057 0.717655 6.1794 0.717654 6.24252 0.970143L6.90894 3.63583C7.08809 4.3524 7.64759 4.9119 8.36416 5.09104L11.0298 5.75746C11.2823 5.82059 11.2823 6.17941 11.0298 6.24254L8.36416 6.90896C7.64759 7.0881 7.08809 7.6476 6.90894 8.36417L6.24252 11.0299C6.1794 11.2823 5.82057 11.2823 5.75745 11.0299L5.09103 8.36417C4.91189 7.6476 4.35238 7.0881 3.63581 6.90896L0.970128 6.24254C0.71764 6.17941 0.717639 5.82059 0.970128 5.75746L3.63581 5.09104C4.35238 4.9119 4.91189 4.3524 5.09103 3.63583L5.75745 0.970143ZM37.7575 39.9701C37.8206 39.7177 38.1794 39.7177 38.2425 39.9701L38.509 41.0358C38.6881 41.7524 39.2476 42.3119 39.9642 42.491L41.0299 42.7575C41.2823 42.8206 41.2823 43.1794 41.0299 43.2425L39.9642 43.509C39.2476 43.6881 38.6881 44.2476 38.509 44.9642L38.2425 46.0299C38.1794 46.2823 37.8206 46.2823 37.7575 46.0299L37.491 44.9642C37.3119 44.2476 36.7524 43.6881 36.0358 43.509L34.9701 43.2425C34.7177 43.1794 34.7177 42.8206 34.9701 42.7575L36.0358 42.491C36.7524 42.3119 37.3119 41.7524 37.491 41.0358L37.7575 39.9701ZM45.2425 42.9701C45.1794 42.7176 44.8206 42.7176 44.7574 42.9701L44.491 44.0358C44.3119 44.7524 43.7524 45.3119 43.0358 45.491L41.9701 45.7575C41.7176 45.8206 41.7176 46.1794 41.9701 46.2425L43.0358 46.5089C43.7524 46.6881 44.3119 47.2476 44.491 47.9642L44.7574 49.0298C44.8206 49.2823 45.1794 49.2823 45.2425 49.0298L45.5089 47.9642C45.6881 47.2476 46.2476 46.6881 46.9641 46.5089L48.0298 46.2425C48.2823 46.1794 48.2823 45.8206 48.0298 45.7575L46.9641 45.491C46.2476 45.3119 45.6881 44.7524 45.5089 44.0358L45.2425 42.9701ZM35 12C33.4654 12 31.9023 12.9926 30.6089 14.9494C31.3415 14.3387 32.1501 14 33 14C36.3137 14 39 19.1487 39 25.5C39 29.4974 37.9359 33.0185 36.3209 35.0793C37.2563 35.1904 38.1372 35.4097 38.9394 35.6811C39.2348 35.3014 39.5189 34.8753 39.7886 34.4033C41.1353 32.0467 42 28.7242 42 25C42 21.2758 41.1353 17.9533 39.7886 15.5966C38.4257 13.2117 36.6954 12 35 12ZM40.8403 36.4721C41.0824 36.1302 41.311 35.7703 41.5251 35.3956C43.0738 32.6853 44 29.0078 44 25C44 20.9922 43.0738 17.3147 41.5251 14.6044C39.9925 11.9223 37.7228 9.99999 35 9.99999C32.2771 9.99999 30.0075 11.9223 28.4749 14.6044C26.9261 17.3147 26 20.9922 26 25C26 29.0078 26.9261 32.6853 28.4749 35.3956C28.689 35.7703 28.9175 36.1302 29.1596 36.4721C29.0653 36.5187 28.9731 36.5654 28.8831 36.6121C28.1141 37.0105 27.4912 37.409 27.0581 37.71C26.8412 37.8607 26.6708 37.9876 26.5525 38.0787C26.4933 38.1242 26.4471 38.1609 26.4144 38.1871L26.3757 38.2186L26.3642 38.2281L26.3603 38.2313L26.3589 38.2325L26.3584 38.233C26.3581 38.2332 26.3579 38.2334 27 39C27.6421 39.7666 27.6419 39.7668 27.6417 39.7669L27.645 39.7642L27.6681 39.7454C27.6901 39.7278 27.7251 39.7 27.7725 39.6635C27.8673 39.5905 28.0113 39.483 28.1992 39.3525C28.5757 39.0909 29.1244 38.7395 29.8031 38.3879C31.1712 37.6792 33.009 37 35 37C36.991 37 38.8288 37.6792 40.1968 38.3879C40.8755 38.7395 41.4242 39.0909 41.8007 39.3525C41.9886 39.483 42.1326 39.5905 42.2275 39.6635C42.2748 39.7 42.3099 39.7278 42.3318 39.7454L42.3549 39.7642L42.3583 39.7669C42.3581 39.7668 42.3579 39.7666 43 39C43.6421 38.2334 43.6418 38.2332 43.6416 38.233L43.641 38.2325L43.6396 38.2313L43.6358 38.2281L43.6242 38.2186L43.5855 38.1871C43.5528 38.1609 43.5066 38.1242 43.4474 38.0787C43.3291 37.9876 43.1588 37.8607 42.9419 37.71C42.5087 37.409 41.8859 37.0105 41.1168 36.6121C41.0268 36.5654 40.9346 36.5187 40.8403 36.4721ZM36 19C36 20.6568 34.6568 22 33 22C31.3431 22 30 20.6568 30 19C30 17.3431 31.3431 16 33 16C34.6568 16 36 17.3431 36 19ZM36.5 25.5454C37.3284 25.5454 38 24.8433 38 23.9772C38 23.1111 37.3284 22.409 36.5 22.409C35.6715 22.409 35 23.1111 35 23.9772C35 24.8433 35.6715 25.5454 36.5 25.5454ZM10.6089 14.9494C11.9023 12.9926 13.4654 12 15 12C16.6954 12 18.4257 13.2117 19.7886 15.5966C21.1353 17.9533 22 21.2758 22 25C22 28.7242 21.1353 32.0467 19.7886 34.4033C19.5189 34.8753 19.2348 35.3014 18.9394 35.6811C18.1372 35.4097 17.2563 35.1904 16.3209 35.0793C17.9359 33.0185 19 29.4974 19 25.5C19 19.1487 16.3137 14 13 14C12.1501 14 11.3415 14.3387 10.6089 14.9494ZM21.5251 35.3956C21.311 35.7703 21.0824 36.1302 20.8403 36.4721C20.9346 36.5187 21.0268 36.5654 21.1168 36.6121C21.8859 37.0105 22.5087 37.409 22.9419 37.71C23.1588 37.8607 23.3291 37.9876 23.4474 38.0787C23.5066 38.1242 23.5529 38.1609 23.5855 38.1871L23.6242 38.2186L23.6358 38.2281L23.6396 38.2313L23.641 38.2325L23.6416 38.233C23.6418 38.2332 23.6421 38.2334 23 39C22.3579 39.7666 22.3581 39.7668 22.3583 39.7669L22.3549 39.7642L22.3318 39.7454C22.3099 39.7278 22.2748 39.7 22.2275 39.6635C22.1326 39.5905 21.9886 39.483 21.8007 39.3525C21.4242 39.0909 20.8755 38.7395 20.1968 38.3879C18.8288 37.6792 16.991 37 15 37C13.009 37 11.1712 37.6792 9.80311 38.3879C9.12443 38.7395 8.5757 39.0909 8.19921 39.3525C8.01132 39.483 7.8673 39.5905 7.77248 39.6635C7.72509 39.7 7.69008 39.7278 7.66811 39.7454L7.64504 39.7642L7.64166 39.7669C7.64186 39.7668 7.64208 39.7666 6.99997 39C6.35786 38.2334 6.35811 38.2332 6.35836 38.233L6.35894 38.2325L6.36035 38.2313L6.36416 38.2281L6.37572 38.2186L6.41444 38.1871C6.44709 38.1609 6.49334 38.1242 6.55253 38.0787C6.67084 37.9876 6.84116 37.8607 7.05808 37.71C7.49125 37.409 8.11408 37.0105 8.88312 36.6121C8.97311 36.5654 9.06529 36.5187 9.15961 36.4721C8.91749 36.1302 8.68899 35.7703 8.47487 35.3956C6.92612 32.6853 5.99997 29.0078 5.99997 25C5.99997 20.9922 6.92612 17.3147 8.47487 14.6044C10.0075 11.9223 12.2771 9.99999 15 9.99999C17.7228 9.99999 19.9925 11.9223 21.5251 14.6044C23.0738 17.3147 24 20.9922 24 25C24 29.0078 23.0738 32.6853 21.5251 35.3956ZM13 22C14.6568 22 16 20.6568 16 19C16 17.3431 14.6568 16 13 16C11.3431 16 9.99997 17.3431 9.99997 19C9.99997 20.6568 11.3431 22 13 22ZM18 23.9772C18 24.8433 17.3284 25.5454 16.5 25.5454C15.6715 25.5454 15 24.8433 15 23.9772C15 23.1111 15.6715 22.409 16.5 22.409C17.3284 22.409 18 23.1111 18 23.9772Z" />
</svg>
