<svg width="100" height="100" viewBox="0 0 100 100" xmlns="http://www.w3.org/2000/svg">
<path fill-rule="evenodd" clip-rule="evenodd" d="M55.3578 3.03224C56.4445 3.22983 57.1653 4.271 56.9677 5.35775L56.8553 5.97643L67.5049 11.5815C69.3077 12.5304 68.7035 15.2522 66.6686 15.3491L55.0505 15.9023L53.7428 23.0947C65.0017 23.6785 72.6444 26.9109 77.5856 31.344C83.0573 36.2532 85 42.4448 85 47.5C85 49.0863 84.6475 50.5897 84.0061 52C84.6475 53.4103 85 54.9136 85 56.5V61C85 62.4929 84.6877 63.9124 84.1163 65.25C84.6877 66.5875 85 68.007 85 69.5V74C85 79.722 80.4134 84.3639 74.229 87.4561C67.9249 90.6081 59.3559 92.5 50 92.5C40.6441 92.5 32.0751 90.6081 25.771 87.4561C19.5866 84.3639 15 79.722 15 74V69.5C15 68.007 15.3123 66.5875 15.8837 65.25C15.3123 63.9124 15 62.4929 15 61V56.5C15 54.9136 15.3525 53.4103 15.9939 52C15.3525 50.5897 15 49.0863 15 47.5C15 42.4448 16.9427 36.2532 22.4144 31.344C27.8429 26.4737 36.532 23.0527 49.6944 23.0006L53.0323 4.64221C53.2299 3.55546 54.271 2.83465 55.3578 3.03224ZM19 69.7288C20.3789 71.116 22.0529 72.3639 23.9232 73.4571C24.2377 74.1593 24.5394 74.7424 24.7817 75.1799C24.9377 75.4616 25.0699 75.6843 25.1661 75.8413C25.2142 75.9198 25.2534 75.9819 25.2822 76.0268C25.2966 76.0493 25.3084 76.0675 25.3174 76.0813L25.3288 76.0986L25.3329 76.1048L25.3345 76.1073L25.3353 76.1084C25.3356 76.1089 25.3359 76.1093 26.9629 75.0247L25.3359 76.1093C25.6483 76.5779 26.1438 76.8931 26.7007 76.9774C27.2575 77.0617 27.8241 76.9073 28.2612 76.5522L28.2821 76.5352L28.3482 76.4817C28.407 76.4343 28.4947 76.3636 28.6092 76.2717C28.7312 76.1737 28.8837 76.0518 29.0639 75.9082C34.9193 78.18 42.1852 79.5 50 79.5C59.3559 79.5 67.9249 77.6081 74.229 74.4561C76.8483 73.1464 79.181 71.5587 81 69.7288V74C81 77.3907 78.1993 80.9988 72.4401 83.8784C66.8005 86.6982 58.8695 88.5 50 88.5C41.1305 88.5 33.1995 86.6982 27.5599 83.8784C21.8007 80.9988 19 77.3907 19 74V69.7288ZM74.9144 34.3214C70.7567 30.5912 63.9124 27.5404 53.0211 27.0645L51.9677 32.8578C51.7701 33.9445 50.729 34.6653 49.6422 34.4677C48.5555 34.2701 47.8347 33.229 48.0323 32.1422L48.9659 27.0073C45.0091 27.0639 41.5516 27.4456 38.5361 28.0726C38.7349 28.1279 38.9284 28.2152 39.1094 28.3359L42.1094 30.3359C43.0285 30.9486 43.2768 32.1903 42.6641 33.1094C42.0514 34.0284 40.8097 34.2768 39.8906 33.6641L36.8906 31.6641C35.9715 31.0514 35.7232 29.8096 36.3359 28.8906C36.4328 28.7452 36.5455 28.6166 36.6701 28.5056C31.4809 29.8402 27.7369 31.9427 25.0856 34.3214C23.7776 35.495 22.7174 36.7516 21.8711 38.0432C22.0018 38.1664 22.118 38.3094 22.215 38.471L23.715 40.971C24.2833 41.9182 23.9762 43.1467 23.029 43.715C22.0818 44.2833 20.8533 43.9761 20.285 43.029L19.8368 42.282C19.2488 44.0962 19 45.8781 19 47.5C19 50.8907 21.8007 54.4988 27.5599 57.3784C33.1995 60.1982 41.1305 62 50 62C58.8695 62 66.8005 60.1982 72.4401 57.3784C78.1993 54.4988 81 50.8907 81 47.5C81 47.0553 80.9813 46.5986 80.942 46.1326L80.7365 46.4923C80.1885 47.4513 78.9668 47.7845 78.0077 47.2365C77.0487 46.6884 76.7155 45.4667 77.2635 44.5077L79.2635 41.0077C79.3417 40.8708 79.4337 40.7467 79.5366 40.6361C78.5757 38.449 77.087 36.2706 74.9144 34.3214ZM34.4142 36.5858C35.1953 37.3668 35.1953 38.6331 34.4142 39.4142L32.4142 41.4142C31.6332 42.1952 30.3668 42.1952 29.5858 41.4142C28.8047 40.6331 28.8047 39.3668 29.5858 38.5858L31.5858 36.5858C32.3668 35.8047 33.6332 35.8047 34.4142 36.5858ZM46.6641 39.8906C47.2768 40.8096 47.0285 42.0514 46.1094 42.6641L43.1094 44.6641C42.1903 45.2768 40.9486 45.0284 40.3359 44.1094C39.7232 43.1903 39.9715 41.9486 40.8906 41.3359L43.8906 39.3359C44.8097 38.7232 46.0514 38.9715 46.6641 39.8906ZM61.1094 54.6641C62.0285 54.0514 62.2768 52.8096 61.6641 51.8906C61.0514 50.9715 59.8097 50.7232 58.8906 51.3359L55.8906 53.3359C54.9715 53.9486 54.7232 55.1903 55.3359 56.1094C55.9486 57.0284 57.1903 57.2768 58.1094 56.6641L61.1094 54.6641ZM53.3359 39.8906C53.9486 38.9715 55.1903 38.7232 56.1094 39.3359L59.1094 41.3359C60.0285 41.9486 60.2768 43.1903 59.6641 44.1094C59.0514 45.0284 57.8097 45.2768 56.8906 44.6641L53.8906 42.6641C52.9715 42.0514 52.7232 40.8096 53.3359 39.8906ZM67.1094 46.3359C66.1903 45.7232 64.9486 45.9715 64.3359 46.8906C63.7232 47.8096 63.9715 49.0514 64.8906 49.6641L67.8906 51.6641C68.8097 52.2768 70.0514 52.0284 70.6641 51.1094C71.2768 50.1903 71.0285 48.9486 70.1094 48.3359L67.1094 46.3359ZM49.5494 46.0769C50.6115 46.3804 51.2265 47.4874 50.923 48.5494L49.923 52.0494C49.6196 53.1115 48.5126 53.7265 47.4506 53.423C46.3885 53.1196 45.7735 52.0126 46.077 50.9505L47.077 47.4505C47.3804 46.3885 48.4874 45.7735 49.5494 46.0769ZM72.8974 39.3675C72.5481 38.3196 71.4154 37.7533 70.3675 38.1026C69.3197 38.4519 68.7533 39.5845 69.1026 40.6324L70.1026 43.6324C70.4519 44.6803 71.5846 45.2466 72.6325 44.8973C73.6803 44.548 74.2467 43.4154 73.8974 42.3675L72.8974 39.3675ZM66.1094 34.6641C67.0285 34.0514 67.2768 32.8096 66.6641 31.8906C66.0514 30.9715 64.8097 30.7232 63.8906 31.3359L60.8906 33.3359C59.9715 33.9486 59.7232 35.1903 60.3359 36.1094C60.9486 37.0284 62.1903 37.2768 63.1094 36.6641L66.1094 34.6641ZM40.8974 51.3675C40.5481 50.3196 39.4154 49.7533 38.3675 50.1026C37.3197 50.4519 36.7533 51.5845 37.1026 52.6324L38.1026 55.6324C38.4519 56.6803 39.5846 57.2466 40.6325 56.8973C41.6803 56.548 42.2467 55.4154 41.8974 54.3675L40.8974 51.3675ZM31.8974 47.3675C32.2467 48.4154 31.6803 49.5481 30.6325 49.8973L27.6325 50.8973C26.5846 51.2466 25.4519 50.6803 25.1026 49.6324C24.7533 48.5845 25.3197 47.4519 26.3675 47.1026L29.3675 46.1026C30.4154 45.7533 31.5481 46.3196 31.8974 47.3675ZM26.2319 61.7742C26.1038 62.543 26 63.5985 26 64.9999C26 67.401 26.6589 69.6323 27.348 71.2977C27.4422 71.5254 27.5364 71.741 27.6286 71.9433C28.4416 71.3041 29.4791 70.4973 30.664 69.5958C32.3738 68.2948 34.4007 66.7888 36.509 65.3012C34.2583 64.7903 32.0514 64.0684 30.1804 63.3754C28.6365 62.8036 27.2722 62.2326 26.2319 61.7742ZM30.8673 19.4028C30.8673 19.4028 37.0098 15.2809 35.5981 10.0123C35.1275 8.25602 33.396 6.30191 31.1422 6.90581C28.8884 7.50971 28.1199 9.14911 28.1199 9.14911C28.1199 9.14911 26.6346 8.11364 24.3807 8.71755C22.1269 9.32145 21.6045 11.8795 22.0751 13.6357C23.4868 18.9044 30.8673 19.4028 30.8673 19.4028Z"/>
</svg>
