<svg width="100" height="100" viewBox="0 0 100 100" xmlns="http://www.w3.org/2000/svg">
<path fill-rule="evenodd" clip-rule="evenodd" d="M47.2744 15.9641C49.1079 17.6616 50.0002 19 50.0002 19C50.0002 19 50.8924 17.6616 52.7259 15.9641C55.9042 13.0216 61.9106 9 71 9C85.3331 9 93 23.0303 93 35C93 70.9091 50.0002 88 50.0002 88C50.0002 88 7 70.9091 7 35C7 23.0303 14.6668 9 29 9C38.0896 9 44.0961 13.0216 47.2744 15.9641ZM50.0002 83.6416C50.0601 83.6145 50.1217 83.5864 50.1849 83.5576C51.2931 83.051 52.8957 82.2806 54.8275 81.2439C58.7005 79.1655 63.847 76.043 68.973 71.8653C79.3035 63.4458 89 51.2185 89 35C89 29.7908 87.3122 24.1447 84.1612 19.893C81.0751 15.7289 76.6927 13 71 13C64.826 13 60.3786 15.1381 57.4686 17.2417C56.0025 18.3015 54.9259 19.3548 54.2308 20.1225C53.8843 20.5051 53.6362 20.8127 53.4854 21.0088C53.4101 21.1067 53.3594 21.1763 53.3332 21.213L53.3141 21.2401C52.5706 22.3401 51.3291 23 50.0002 23C48.6714 23 47.4299 22.3402 46.6864 21.2402L46.6765 21.2262L46.6671 21.213C46.6409 21.1764 46.5903 21.1068 46.515 21.0088C46.3641 20.8127 46.1161 20.5051 45.7696 20.1225C45.0744 19.3548 43.9978 18.3015 42.5317 17.2417C42.0017 16.8586 41.4207 16.4743 40.7876 16.102C40.9235 16.372 41 16.6771 41 17C41 18.1046 40.1046 19 39 19C37.8954 19 37 18.1046 37 17C37 15.9963 37.7394 15.1652 38.7033 15.0219C36.1297 13.8581 32.9113 13 29 13C23.3072 13 18.9248 15.7289 15.8387 19.893C13.0872 23.6057 11.4514 28.3817 11.0809 33.0016C12.148 33.0441 13 33.9225 13 35C13 36.088 12.1312 36.9731 11.0495 36.9994C11.1993 40.0149 11.685 42.8869 12.4444 45.6166C12.7886 45.9759 13 46.4632 13 47C13 47.1197 12.9895 47.2369 12.9693 47.3507C13.3883 48.6304 13.8672 49.8773 14.3991 51.0918C14.5888 51.0322 14.7906 51 15 51C16.1046 51 17 51.8954 17 53C17 53.6776 16.663 54.2765 16.1475 54.6383C16.666 55.5824 17.2156 56.5048 17.7926 57.4054C18.1282 57.151 18.5464 57 19 57C20.1046 57 21 57.8954 21 59C21 59.7068 20.6333 60.328 20.0798 60.6838C20.7333 61.5483 21.4105 62.3903 22.1073 63.2098C22.376 63.0755 22.6792 63 23 63C24.1046 63 25 63.8954 25 65C25 65.3907 24.8879 65.7553 24.6942 66.0633C26.7216 68.1659 28.8604 70.0994 31.0271 71.8653C33.0761 73.5352 35.1284 75.0365 37.1013 76.3699C37.3652 75.5741 38.1156 75 39 75C40.1046 75 41 75.8954 41 77C41 77.5814 40.7519 78.1049 40.3558 78.4703C42.0947 79.5415 43.723 80.4659 45.1728 81.2439C47.1046 82.2806 48.7073 83.051 49.8154 83.5575C49.8787 83.5864 49.9402 83.6145 50.0002 83.6416ZM69 20C69 18.8954 69.8954 18 71 18C75.3975 18 78.7275 20.1391 80.8869 23.2295C83.0047 26.2604 84 30.1849 84 34C84 35.1046 83.1046 36 82 36C80.8954 36 80 35.1046 80 34C80 30.8151 79.1585 27.7396 77.608 25.5205C76.099 23.3609 73.9289 22 71 22C69.8954 22 69 21.1046 69 20ZM25 17C25 18.1046 24.1046 19 23 19C21.8954 19 21 18.1046 21 17C21 15.8954 21.8954 15 23 15C24.1046 15 25 15.8954 25 17ZM21 23C21 24.1046 20.1046 25 19 25C17.8954 25 17 24.1046 17 23C17 21.8954 17.8954 21 19 21C20.1046 21 21 21.8954 21 23ZM31 19C32.1046 19 33 18.1046 33 17C33 15.8954 32.1046 15 31 15C29.8954 15 29 15.8954 29 17C29 18.1046 29.8954 19 31 19ZM15 31C16.1046 31 17 30.1046 17 29C17 27.8954 16.1046 27 15 27C13.8954 27 13 27.8954 13 29C13 30.1046 13.8954 31 15 31ZM25 29C25 30.1046 24.1046 31 23 31C21.8954 31 21 30.1046 21 29C21 27.8954 21.8954 27 23 27C24.1046 27 25 27.8954 25 29ZM27 25C28.1046 25 29 24.1046 29 23C29 21.8954 28.1046 21 27 21C25.8954 21 25 21.8954 25 23C25 24.1046 25.8954 25 27 25ZM37 23C37 24.1046 36.1046 25 35 25C33.8954 25 33 24.1046 33 23C33 21.8954 33.8954 21 35 21C36.1046 21 37 21.8954 37 23ZM43 25C44.1046 25 45 24.1046 45 23C45 21.8954 44.1046 21 43 21C41.8954 21 41 21.8954 41 23C41 24.1046 41.8954 25 43 25ZM21 35C21 36.1046 20.1046 37 19 37C17.8954 37 17 36.1046 17 35C17 33.8954 17.8954 33 19 33C20.1046 33 21 33.8954 21 35ZM19 49C20.1046 49 21 48.1046 21 47C21 45.8954 20.1046 45 19 45C17.8954 45 17 45.8954 17 47C17 48.1046 17.8954 49 19 49ZM27 37C28.1046 37 29 36.1046 29 35C29 33.8954 28.1046 33 27 33C25.8954 33 25 33.8954 25 35C25 36.1046 25.8954 37 27 37ZM37 35C37 36.1046 36.1046 37 35 37C33.8954 37 33 36.1046 33 35C33 33.8954 33.8954 33 35 33C36.1046 33 37 33.8954 37 35ZM43 37C44.1046 37 45 36.1046 45 35C45 33.8954 44.1046 33 43 33C41.8954 33 41 33.8954 41 35C41 36.1046 41.8954 37 43 37ZM41 29C41 30.1046 40.1046 31 39 31C37.8954 31 37 30.1046 37 29C37 27.8954 37.8954 27 39 27C40.1046 27 41 27.8954 41 29ZM47 31C48.1046 31 49 30.1046 49 29C49 27.8954 48.1046 27 47 27C45.8954 27 45 27.8954 45 29C45 30.1046 45.8954 31 47 31ZM41 41C41 42.1046 40.1046 43 39 43C37.8954 43 37 42.1046 37 41C37 39.8954 37.8954 39 39 39C40.1046 39 41 39.8954 41 41ZM47 43C48.1046 43 49 42.1046 49 41C49 39.8954 48.1046 39 47 39C45.8954 39 45 39.8954 45 41C45 42.1046 45.8954 43 47 43ZM41 53C41 54.1046 40.1046 55 39 55C37.8954 55 37 54.1046 37 53C37 51.8954 37.8954 51 39 51C40.1046 51 41 51.8954 41 53ZM47 55C48.1046 55 49 54.1046 49 53C49 51.8954 48.1046 51 47 51C45.8954 51 45 51.8954 45 53C45 54.1046 45.8954 55 47 55ZM37 59C37 60.1046 36.1046 61 35 61C33.8954 61 33 60.1046 33 59C33 57.8954 33.8954 57 35 57C36.1046 57 37 57.8954 37 59ZM43 61C44.1046 61 45 60.1046 45 59C45 57.8954 44.1046 57 43 57C41.8954 57 41 57.8954 41 59C41 60.1046 41.8954 61 43 61ZM37 71C37 72.1046 36.1046 73 35 73C33.8954 73 33 72.1046 33 71C33 69.8954 33.8954 69 35 69C36.1046 69 37 69.8954 37 71ZM43 73C44.1046 73 45 72.1046 45 71C45 69.8954 44.1046 69 43 69C41.8954 69 41 69.8954 41 71C41 72.1046 41.8954 73 43 73ZM41 65C41 66.1046 40.1046 67 39 67C37.8954 67 37 66.1046 37 65C37 63.8954 37.8954 63 39 63C40.1046 63 41 63.8954 41 65ZM47 67C48.1046 67 49 66.1046 49 65C49 63.8954 48.1046 63 47 63C45.8954 63 45 63.8954 45 65C45 66.1046 45.8954 67 47 67ZM47 79C48.1046 79 49 78.1046 49 77C49 75.8954 48.1046 75 47 75C45.8954 75 45 75.8954 45 77C45 78.1046 45.8954 79 47 79ZM33 65C33 66.1046 32.1046 67 31 67C29.8954 67 29 66.1046 29 65C29 63.8954 29.8954 63 31 63C32.1046 63 33 63.8954 33 65ZM29 47C29 48.1046 28.1046 49 27 49C25.8954 49 25 48.1046 25 47C25 45.8954 25.8954 45 27 45C28.1046 45 29 45.8954 29 47ZM35 49C36.1046 49 37 48.1046 37 47C37 45.8954 36.1046 45 35 45C33.8954 45 33 45.8954 33 47C33 48.1046 33.8954 49 35 49ZM45 47C45 48.1046 44.1046 49 43 49C41.8954 49 41 48.1046 41 47C41 45.8954 41.8954 45 43 45C44.1046 45 45 45.8954 45 47ZM27 61C28.1046 61 29 60.1046 29 59C29 57.8954 28.1046 57 27 57C25.8954 57 25 57.8954 25 59C25 60.1046 25.8954 61 27 61ZM23 43C24.1046 43 25 42.1046 25 41C25 39.8954 24.1046 39 23 39C21.8954 39 21 39.8954 21 41C21 42.1046 21.8954 43 23 43ZM25 53C25 54.1046 24.1046 55 23 55C21.8954 55 21 54.1046 21 53C21 51.8954 21.8954 51 23 51C24.1046 51 25 51.8954 25 53ZM17 41C17 42.1046 16.1046 43 15 43C13.8954 43 13 42.1046 13 41C13 39.8954 13.8954 39 15 39C16.1046 39 17 39.8954 17 41ZM33 29C33 30.1046 32.1046 31 31 31C29.8954 31 29 30.1046 29 29C29 27.8954 29.8954 27 31 27C32.1046 27 33 27.8954 33 29ZM31 43C32.1046 43 33 42.1046 33 41C33 39.8954 32.1046 39 31 39C29.8954 39 29 39.8954 29 41C29 42.1046 29.8954 43 31 43ZM33 53C33 54.1046 32.1046 55 31 55C29.8954 55 29 54.1046 29 53C29 51.8954 29.8954 51 31 51C32.1046 51 33 51.8954 33 53Z"/>
</svg>
