<svg width="100" height="100" viewBox="0 0 100 100" xmlns="http://www.w3.org/2000/svg">
<path fill-rule="evenodd" clip-rule="evenodd" d="M37.74 3.57112C39.5475 3.07653 41.6958 2.50012 44 2.50012C46.4921 2.50012 48.1062 3.29422 49.2985 4.02823C49.5633 4.19127 49.7602 4.31863 49.9252 4.42538C50.1667 4.58165 50.34 4.69377 50.5584 4.80901C50.8306 4.95266 50.9401 4.96261 51 4.96261H51.0125V4.96265C54.1886 4.98254 56.9038 5.61187 58.4672 8.23002C59.168 9.40377 59.5298 10.8184 59.7332 12.3769C59.9325 13.9041 59.9966 15.7184 59.9999 17.8247C60.0321 17.8417 60.0642 17.8591 60.0963 17.8769C62.0925 18.986 63 21.0919 63 24.0002C63 29.5776 58.9741 33.6072 54.4756 36.121C49.9264 38.6632 44.3404 40.0002 40 40.0002C38.1693 40.0002 36.5986 39.9541 35.1718 39.8483C35.6845 40.7389 36.2365 41.751 36.7889 42.8557C38.653 46.584 40.6166 51.5533 40.9504 56.543C41.5034 55.5245 42.0974 54.4898 42.7329 53.4541C47.8707 45.0814 56.1403 36.0002 68 36.0002C77.7758 36.0002 85.1125 39.5523 89.9703 45.3479C94.785 51.092 97 58.8394 97 67.0002C97 71.7049 96.5663 76.1024 94.5906 79.9392C92.5764 83.8507 89.0978 86.9262 83.5286 89.2799C78.0106 91.6119 70.3451 93.2785 59.7683 94.3724C49.1706 95.4684 35.5311 96.0002 18 96.0002C14.9165 96.0002 11.6618 95.1619 9.14355 93.0252C6.56948 90.8411 5.00001 87.4985 5.00001 83.0002C5.00001 74.0026 5.75214 54.7187 9.41953 37.6298C11.2497 29.1018 13.8383 20.9592 17.526 14.9007C21.2122 8.84458 26.2483 4.50025 33 4.50027C34.3449 4.50027 35.7857 4.10597 37.658 3.59354L37.74 3.57112ZM55.0497 17.0002C55.3465 17.0002 55.6654 17.0002 55.995 17.0066C55.977 15.3368 55.9097 13.9894 55.7668 12.8945C55.5952 11.5793 55.332 10.7817 55.0329 10.2808C54.5965 9.55006 53.8124 8.98096 50.9927 8.96261C50.0559 8.96106 49.2928 8.66393 48.6916 8.34669C48.3281 8.15487 47.899 7.87951 47.5571 7.66009C47.4217 7.57325 47.3001 7.49517 47.2015 7.4345C46.3938 6.93727 45.5079 6.50012 44 6.50012C42.3042 6.50012 40.643 6.92379 38.7957 7.42928L38.4876 7.51384C36.8156 7.97341 34.8988 8.50027 33 8.50027C28.2517 8.50026 24.2878 11.4848 20.9428 16.9804C17.5992 22.4737 15.1253 30.1057 13.3305 38.4691C9.74787 55.163 9.00001 74.129 9.00001 83.0002C9.00001 86.5018 10.1805 88.6592 11.7315 89.9751C13.3382 91.3385 15.5835 92.0002 18 92.0002C35.469 92.0002 48.9544 91.4694 59.3568 90.3936C69.7799 89.3156 76.9894 87.7009 81.9714 85.5954C86.9022 83.5116 89.5486 80.9933 91.0344 78.108C92.5587 75.1478 93 71.5454 93 67.0002C93 59.5142 90.965 52.7615 86.9047 47.9174C82.8875 43.1247 76.7242 40.0002 68 40.0002C58.3597 40.0002 51.1293 47.4189 46.1422 55.5462C43.6889 59.5441 41.8782 63.5577 40.6795 66.581C40.0814 68.0896 39.6387 69.3439 39.347 70.2165C39.2011 70.6526 39.0932 70.9928 39.0225 71.221C39.0039 71.281 38.9879 71.3332 38.9745 71.3774L38.9444 71.4773L38.9263 71.5387L38.9239 71.5465L38.9224 71.552L38.9223 71.5521L38.9218 71.5539L38.9217 71.5542L38.9216 71.5546C38.9215 71.5549 38.9215 71.5551 37 71.0001L38.9215 71.5551L35.0781 70.4469L37 71.0001C35.1913 70.4795 35.0849 70.4482 35.0788 70.4456C35.0784 70.4455 35.0785 70.4455 35.0784 70.4455L35.0785 70.4454L35.079 70.4437L35.0792 70.4431L35.0811 70.4363L35.0822 70.4323L35.0969 70.3805C35.1101 70.3334 35.1301 70.2613 35.156 70.1662C35.2077 69.9759 35.2826 69.6937 35.3731 69.3346C35.5543 68.6158 35.7967 67.5925 36.0391 66.3848C36.528 63.95 37 60.8472 37 58.0001C37 53.4674 35.1655 48.5532 33.2112 44.6446C32.2473 42.7168 31.2821 41.0879 30.559 39.9431C30.3522 39.6156 30.1657 39.3285 30.0052 39.0861C29.7163 39.0197 29.4268 38.9492 29.1354 38.8743C29.9247 43.1714 31 50.5755 31 58.0001H27C27 48.2067 25.0321 38.3746 24.5597 36.4852L27.1325 34.1028C31.4025 35.5261 34.1857 36.0002 40 36.0002C43.6596 36.0002 48.5736 34.8371 52.5244 32.6293C56.5259 30.3931 59 27.4227 59 24.0002C59 21.9086 58.4074 21.5145 58.1537 21.3736C57.9136 21.2402 57.5493 21.1291 56.9823 21.0661C56.4091 21.0025 55.7734 21.0002 55 21.0002C52.5875 21.0002 49.8208 21.2463 47.7273 21.9074C46.6772 22.239 45.944 22.6301 45.5045 23.0228C45.115 23.3709 45 23.6685 45 24.0002C45 25.0745 45.4115 25.5904 45.883 25.9146C46.4573 26.3094 47.2758 26.5002 48 26.5002C48.9971 26.5002 50.1401 26.065 51.1537 25.5018C51.6362 25.2338 52.0406 24.9643 52.3219 24.7633C52.4617 24.6635 52.5688 24.5822 52.6374 24.5289C52.6716 24.5022 52.6961 24.4827 52.7101 24.4714L52.7203 24.4631C52.72 24.4634 52.7196 24.4637 54 26.0002C55.2804 27.5366 55.28 27.5369 55.2796 27.5372L55.2788 27.5379L55.2769 27.5395L55.2722 27.5434L55.2596 27.5538L55.2211 27.5851C55.1897 27.6104 55.1468 27.6446 55.0931 27.6863C54.986 27.7696 54.8352 27.8837 54.6469 28.0182C54.2719 28.286 53.7388 28.6415 53.0963 28.9985C51.8599 29.6854 50.0029 30.5002 48 30.5002C46.735 30.5002 45.0711 30.1962 43.6532 29.2355C42.7484 29.6736 41.5466 30.0001 40 30.0001C38.0525 30.0001 36.4599 29.3521 35.3827 28.7366C35.2536 28.6628 35.1308 28.5889 35.0147 28.5159C34.2589 28.8526 33.4096 29.0001 32.4998 29.0001C30.2587 29.0001 28.103 28.2302 26.48 27.0598C24.9144 25.9307 23.5 24.1537 23.5 22.0001C23.5 20.5777 23.7669 19.0778 24.933 18.0575C25.3455 17.6965 25.8046 17.4576 26.2719 17.3L26.0154 15.2482L29.9846 14.7521L30.4846 18.7521L28.5 21.0001C28.0659 21.0001 27.7985 21.0291 27.6343 21.0668C27.6198 21.0701 27.6069 21.0733 27.5955 21.0763C27.558 21.1934 27.5 21.4628 27.5 22.0001C27.5 22.3465 27.7855 23.0696 28.8198 23.8155C29.7967 24.52 31.141 25.0001 32.4998 25.0001C33.1257 25.0001 33.3896 24.8708 33.4818 24.8113C33.5603 24.7607 33.6507 24.6754 33.7429 24.4448C33.9918 23.8227 33.9999 22.9061 33.9999 21.5001C33.9999 20.4094 33.7715 18.4188 33.5187 16.5859C33.3957 15.6943 33.2726 14.8781 33.1801 14.2846C33.1339 13.9881 33.0955 13.7479 33.0687 13.5823L33.0377 13.3925L33.0297 13.344L33.0278 13.3322L33.0273 13.3295L33.0272 13.3289L33.0272 13.3288L35 13.0001C36.9728 12.6714 36.9728 12.6714 36.9728 12.6716L36.9729 12.6719L36.9731 12.673L36.9737 12.6768L36.976 12.6908L36.9848 12.7437L37.0173 12.9433C37.0452 13.1156 37.0849 13.3637 37.1324 13.6687C37.2274 14.2783 37.3542 15.1185 37.4812 16.0394C37.7284 17.8314 37.9999 20.0908 37.9999 21.5001C37.9999 21.5848 38.0002 21.6739 38.0006 21.7669C38.0044 22.7399 38.0099 24.1429 37.6367 25.4088C38.2745 25.7324 39.0821 26.0001 40 26.0001C40.507 26.0001 40.9155 25.9451 41.2398 25.868C41.0846 25.2991 41 24.6765 41 24.0002C41 23.181 41.1833 22.4439 41.4976 21.7917C41.4726 20.609 41.2518 18.3795 41.0129 16.2897C40.8891 15.206 40.7651 14.1986 40.672 13.4617C40.6255 13.0935 40.5868 12.7933 40.5597 12.5856L40.5284 12.3464L40.5202 12.2847L40.5182 12.2692L40.5177 12.2655L40.5176 12.2646L40.5176 12.2645L42.5 12.0001C44.4825 11.7358 44.4825 11.7359 44.4825 11.736L44.4825 11.7363L44.4827 11.7375L44.4833 11.7419L44.4855 11.7588L44.4941 11.8235L44.5262 12.069C44.5539 12.2812 44.5933 12.5865 44.6405 12.9604C44.7349 13.7079 44.8609 14.7317 44.9871 15.8355C45.0861 16.7019 45.1884 17.6437 45.2753 18.5504C45.6852 18.3764 46.1042 18.2252 46.5227 18.0931C47.1393 17.8984 47.7869 17.7352 48.4503 17.5994C48.4044 16.7809 48.3323 15.8213 48.2569 14.9162C48.1951 14.1749 48.1333 13.4946 48.0869 12.9993C48.0637 12.7518 48.0444 12.551 48.0309 12.4124L48.0153 12.2532L48.0112 12.2123L48.0102 12.2021L48.01 12.1997L48.0099 12.1992L48.0099 12.1991L50 12.0001C51.9901 11.8011 51.9901 11.8012 51.9901 11.8012L51.9901 11.8015L51.9902 11.8023L51.9905 11.8054L51.9916 11.8168L51.996 11.8603L52.0121 12.0253C52.026 12.168 52.0457 12.3734 52.0694 12.6259C52.1167 13.1307 52.1799 13.8253 52.2431 14.584C52.3089 15.3736 52.3773 16.2613 52.427 17.0844C53.3228 17.025 54.1928 17.0002 55 17.0002L55.0497 17.0002ZM66 75.0001C74.4021 75.0001 79.9394 72.6282 83.4186 70.1232C85.1464 68.8792 86.339 67.6223 87.1114 66.6522C87.4975 66.1674 87.7788 65.7541 87.9699 65.4493C88.0655 65.2968 88.1386 65.1713 88.1911 65.0774C88.2174 65.0305 88.2385 64.9914 88.2547 64.9607L88.2754 64.9211L88.283 64.9062L88.2862 64.8999L88.2876 64.8971C88.2882 64.8958 88.2889 64.8946 86.5 64.0001C84.7112 63.1057 84.7118 63.1045 84.7123 63.1033L84.7134 63.1011L84.7153 63.0974L84.718 63.0922L84.7185 63.0912C84.7167 63.0946 84.7106 63.106 84.7 63.125C84.6788 63.1629 84.6396 63.2308 84.5809 63.3244C84.4634 63.5118 84.2681 63.8016 83.9823 64.1605C83.411 64.878 82.4786 65.871 81.0814 66.8771C78.3106 68.872 73.5979 71.0001 66 71.0001C60.3658 71.0001 56.4949 70.5102 54.0705 70.0371C52.8584 69.8006 52.0074 69.5682 51.478 69.4032C51.2132 69.3207 51.0287 69.255 50.9195 69.2139C50.8648 69.1934 50.829 69.179 50.8114 69.1718L50.802 69.168L50.8063 69.1699L50.8091 69.1711L50.8106 69.1718C50.8115 69.1721 50.8123 69.1725 50 71.0001C49.1877 72.8277 49.1886 72.8281 49.1895 72.8285L49.1913 72.8293L49.1953 72.8311L49.2046 72.8352L49.2281 72.8453L49.2599 72.8587L49.2953 72.8734C49.3492 72.8954 49.4213 72.924 49.5122 72.9582C49.694 73.0265 49.9509 73.117 50.2877 73.222C50.9614 73.432 51.9542 73.6996 53.3045 73.9631C56.0051 74.4901 60.1342 75.0001 66 75.0001ZM27.6267 21.0002C27.6268 21.0004 27.6254 21.0033 27.6219 21.0084L27.6245 21.0035C27.6259 21.0011 27.6266 21.0001 27.6267 21.0002ZM77.962 26.9493C77.962 26.9493 88.2217 24.4173 88.9009 16.6547C89.1272 14.0672 87.7577 10.598 84.4371 10.3075C81.1165 10.0169 79.2837 11.8422 79.2837 11.8422C79.2837 11.8422 77.7958 9.72642 74.4751 9.4359C71.1545 9.14538 69.2033 12.3241 68.977 14.9116C68.2978 22.6742 77.962 26.9493 77.962 26.9493Z" />
</svg>
