<svg width="100" height="100" viewBox="0 0 100 100" xmlns="http://www.w3.org/2000/svg">
<path fill-rule="evenodd" clip-rule="evenodd" d="M64.4851 1.94026C64.3589 1.43528 63.6412 1.43528 63.515 1.94025L62.5821 5.67163C62.2239 7.10477 61.1049 8.22377 59.6717 8.58206L55.9403 9.5149C55.4354 9.64114 55.4354 10.3588 55.9403 10.485L59.6717 11.4179C61.1049 11.7762 62.2239 12.8952 62.5821 14.3283L63.515 18.0597C63.6412 18.5647 64.3589 18.5647 64.4851 18.0597L65.418 14.3283C65.7763 12.8952 66.8953 11.7762 68.3284 11.4179L72.0598 10.485C72.5647 10.3588 72.5647 9.64114 72.0598 9.5149L68.3284 8.58206C66.8953 8.22377 65.7763 7.10477 65.418 5.67163L64.4851 1.94026ZM81.8945 7.78883C81.526 7.05178 80.4742 7.05178 80.1056 7.78883L79.4473 9.10554C79.157 9.68613 78.6862 10.1569 78.1056 10.4472L76.7889 11.1055C76.0519 11.4741 76.0519 12.5259 76.7889 12.8944L78.1056 13.5528C78.6862 13.843 79.157 14.3138 79.4473 14.8944L80.1056 16.2111C80.4742 16.9482 81.526 16.9482 81.8945 16.2111L82.5528 14.8944C82.8431 14.3138 83.3139 13.843 83.8945 13.5528L85.2112 12.8944C85.9483 12.5259 85.9483 11.4741 85.2112 11.1055L83.8945 10.4472C83.3139 10.1569 82.8431 9.68613 82.5528 9.10554L81.8945 7.78883ZM18.5028 28.1885C17.4834 30.9689 17.1254 34.4538 17.0296 37.8141C18.1945 37.5399 19.8662 36.903 21.7727 35.421C23.5398 34.0472 24.5457 32.5611 25.5886 31.0203C25.8424 30.6452 26.0985 30.2669 26.3683 29.8861C27.0247 28.9597 27.8143 27.961 28.8941 27.2145C28.9715 27.161 29.0498 27.1092 29.1291 27.059C28.8 24.478 26.7465 23 25.0001 23C23.195 23 21.9121 23.5374 20.9365 24.3672C19.9235 25.2288 19.1162 26.5157 18.5028 28.1885ZM12.969 39.888L13.0004 39.7574C13.0103 35.78 13.2707 30.8386 14.7473 26.8115C15.5089 24.7343 16.6391 22.7712 18.3449 21.3203C20.0881 19.8376 22.3052 19 25.0001 19C28.75 19 32.2159 21.8446 33.0051 26C37.5207 26.0015 40.1722 28.0874 42.1552 30.289C42.6333 30.8198 43.0784 31.363 43.4887 31.8664L43.5783 31.9763C43.963 32.4485 44.3154 32.881 44.6762 33.2912C45.4532 34.1743 46.1561 34.8184 46.9379 35.2334C51.6166 37.7171 56.578 38.6726 60.4146 38.9958C62.3085 39.1554 63.9065 39.159 65.0291 39.1228C65.1563 35.0646 65.7246 30.8102 67.1521 27.3603C67.9838 25.3504 69.1504 23.5071 70.7932 22.1576C72.4699 20.7804 74.5455 20 77.0001 20C79.5771 20 81.7117 20.6128 83.4351 21.7123C85.1518 22.8074 86.3405 24.3083 87.1556 25.9015C88.753 29.0238 89.0001 32.6671 89.0001 35C89.0001 43.4975 87.2027 50.921 83.6707 56.2871C80.4378 61.1986 75.7626 64.3454 69.9198 64.9088L69.9144 64.9142C67.0613 67.7673 62.0555 72.0006 56.0809 75.5339C50.1369 79.0492 43.0196 82 36.0005 82C32.7427 82 29.3308 81.1235 25.6935 78.4963C22.1115 75.909 18.371 71.6687 14.2968 65.0482C11.4741 60.4612 11.0001 56.1935 11.0001 53C11.0001 50.2994 11.5322 46.8928 12.0354 44.2508C12.2907 42.9106 12.5457 41.7313 12.7369 40.8865C12.8327 40.4637 12.9127 40.1236 12.969 39.888ZM69.0001 40.9817C69.0015 36.5791 69.4998 32.1482 70.8482 28.8897C71.5165 27.2746 72.35 26.0553 73.3322 25.2485C74.2805 24.4696 75.4549 24 77.0001 24C78.9232 24 80.2886 24.4496 81.2839 25.0845C82.286 25.7238 83.0348 26.6292 83.5946 27.7234C84.7472 29.9762 85.0001 32.8329 85.0001 35C85.0001 43.0025 83.2974 49.5789 80.3295 54.0879C77.8116 57.9132 74.3781 60.2804 70.1105 60.8602C69.9983 60.0292 69.8695 58.9677 69.7403 57.676C69.3719 53.9918 69.0002 48.4332 69.0002 41L69.0001 40.9817ZM16.5981 41.9479C16.4196 42.7432 16.1921 43.8058 15.9648 44.9992C15.468 47.6071 15.0001 50.7006 15.0001 53C15.0001 55.7461 15.3978 59.2051 17.7035 62.9518C21.6293 69.3313 25.0413 73.0909 28.0356 75.2537C28.7561 75.7741 29.4555 76.2044 30.1368 76.5575C29.8085 75.4094 29.4293 73.978 29.0504 72.3206C28.0287 67.8504 27.0001 61.6945 27.0001 55C27.0001 48.8887 27.5094 44.5185 28.0324 41.6422C28.2939 40.2041 28.5586 39.1401 28.7646 38.4193C28.8676 38.0589 28.9558 37.7844 29.0215 37.592C29.0544 37.4958 29.0816 37.4201 29.1022 37.3644L29.1119 37.3384L29.128 37.2959L29.137 37.2729L29.1404 37.2641L29.1419 37.2604L29.1426 37.2587C29.1429 37.258 29.1432 37.2572 31.0001 38C32.8571 38.7428 32.8574 38.742 32.8577 38.7413L32.8582 38.74L32.8591 38.7377L32.8604 38.7344L32.8532 38.7537C32.8445 38.7771 32.8287 38.8206 32.8069 38.8845C32.7632 39.0124 32.6952 39.2223 32.6107 39.5182C32.4416 40.1098 32.2064 41.0458 31.9679 42.3577C31.4908 44.9814 31.0001 49.1113 31.0001 55C31.0001 61.3055 31.9716 67.1495 32.9499 71.4293C33.438 73.565 33.9254 75.3007 34.2888 76.4967C34.4704 77.0945 34.6208 77.5568 34.7245 77.8661L34.7501 77.9423C35.1719 77.9821 35.5883 78 36.0005 78C41.9813 78 48.3639 75.4507 54.0448 72.091C59.2055 69.0389 63.6102 65.4237 66.3515 62.8034C66.3315 62.6767 66.3103 62.5391 66.288 62.3904C66.1425 61.4206 65.9509 59.9818 65.7602 58.074C65.4152 54.6241 65.0728 49.6411 65.0103 43.1252C63.7709 43.1604 62.0717 43.1496 60.0788 42.9817C55.913 42.6308 50.3744 41.5863 45.0624 38.7665C43.6529 38.0183 42.5726 36.9558 41.673 35.9333C41.2596 35.4634 40.8605 34.9734 40.4859 34.5135L40.3882 34.3935C39.9758 33.8877 39.5873 33.4149 39.1831 32.9661C37.6375 31.2501 35.9816 30 33.0001 30C32.1303 30 31.5948 30.2102 31.1687 30.5048C30.686 30.8385 30.2256 31.3609 29.632 32.1987C29.4385 32.4718 29.2343 32.7758 29.0145 33.103C27.9601 34.6724 26.5468 36.7761 24.2276 38.579C21.7577 40.499 19.4821 41.371 17.7625 41.7495C17.3361 41.8434 16.9461 41.9064 16.5981 41.9479ZM79.0299 69.8805C79.2824 68.8706 80.7177 68.8706 80.9702 69.8805L82.418 75.6716C82.7763 77.1048 83.8953 78.2238 85.3284 78.5821L91.1195 80.0298C92.1294 80.2823 92.1294 81.7176 91.1195 81.9701L85.3284 83.4179C83.8953 83.7762 82.7763 84.8952 82.418 86.3283L80.9702 92.1194C80.7177 93.1294 79.2824 93.1293 79.0299 92.1194L77.5821 86.3283C77.2239 84.8952 76.1049 83.7762 74.6717 83.4179L68.8806 81.9701C67.8707 81.7176 67.8707 80.2823 68.8806 80.0298L74.6717 78.5821C76.1049 78.2238 77.2239 77.1048 77.5821 75.6716L79.0299 69.8805Z"/>
</svg>
