<svg width="50" height="50" viewBox="0 0 50 50" xmlns="http://www.w3.org/2000/svg">
<path fill-rule="evenodd" clip-rule="evenodd" d="M26.4272 0.0958316C26.6685 0.209827 26.8542 0.415535 26.943 0.66718L31.9449 14.8392L44.3761 20.0734C44.4334 20.0967 44.4888 20.1254 44.5418 20.1595C44.8274 20.3436 45 20.6602 45 21V40.3846C45 40.7771 44.7704 41.1333 44.413 41.2954L25.413 49.9107C25.1505 50.0298 24.8495 50.0298 24.587 49.9107L5.58703 41.2954C5.22959 41.1333 5 40.7771 5 40.3846V21C5 20.6602 5.17259 20.3436 5.45823 20.1595C5.50744 20.1278 5.55885 20.1007 5.61182 20.0784L5.61182 20.0784L17.5309 15.0598L14.0583 5.33634C13.8733 4.81834 14.1413 4.24818 14.6583 4.06021L25.6583 0.060207C25.909 -0.0309903 26.1859 -0.018164 26.4272 0.0958316ZM8.4963 21.0339L25 28.5174L41.5036 21.034L32.8445 17.388L32.943 17.6672C33.1183 18.164 32.8782 18.7116 32.3939 18.9191L27.6129 20.9681L30.3714 22.0715C30.8842 22.2766 31.1336 22.8586 30.9285 23.3714C30.7234 23.8842 30.1414 24.1336 29.6286 23.9285L24.6286 21.9285L19.6286 19.9285C19.3624 19.822 19.1547 19.6064 19.0583 19.3363L18.2046 16.9462L8.4963 21.0339ZM16.2762 5.60001L20.7901 18.239L24.9868 19.9177L30.7453 17.4497L25.393 2.28479L16.2762 5.60001ZM25 32C25.5523 32 26 32.4477 26 33V45C26 45.5523 25.5523 46 25 46C24.4477 46 24 45.5523 24 45V33C24 32.4477 24.4477 32 25 32Z"/>
</svg>
