<svg width="50" height="50" viewBox="0 0 50 50" xmlns="http://www.w3.org/2000/svg">
<path fill-rule="evenodd" clip-rule="evenodd" d="M21.5176 13.0408C24.011 14.3613 26.9647 16.5505 29.7071 19.2929C32.4495 22.0353 34.6387 24.9891 35.9592 27.4824C36.6164 28.7235 37.0835 29.8971 37.2761 30.9027C37.4559 31.8418 37.4546 32.9596 36.7071 33.7071L36.7009 33.7133L35.7072 34.7071C35.6171 34.7972 35.5106 34.8693 35.3935 34.9194L35.1557 34.3638C35.3934 34.9194 35.3933 34.9195 35.3932 34.9195L35.3923 34.9199L35.389 34.9213L35.3755 34.9271L35.3226 34.9497L35.1159 35.0381L34.3304 35.3741C33.653 35.6637 32.6838 36.0779 31.5167 36.5763C29.1825 37.5732 26.0563 38.9069 22.8886 40.2546C19.7211 41.6021 16.5111 42.9639 14.0096 44.0166C11.5412 45.0554 9.69536 45.8224 9.3163 45.9487C8.57855 46.1946 7.757 46.3644 6.8676 46.1975C5.96772 46.0287 5.12612 45.5403 4.29296 44.7071C3.45981 43.874 2.97144 43.0324 2.80257 42.1325C2.63567 41.2431 2.80547 40.4216 3.05139 39.6838C3.17774 39.3048 3.94468 37.4589 4.98349 34.9905C6.0362 32.489 7.398 29.279 8.74552 26.1115C10.0931 22.9438 11.4269 19.8176 12.4237 17.4834C12.9222 16.3162 13.3364 15.3471 13.626 14.6697L13.9619 13.8841L14.0503 13.6775L14.073 13.6245L14.0787 13.6111L14.0802 13.6077L14.0805 13.6069C14.0806 13.6067 14.0806 13.6066 14.6362 13.8443V13.8443L14.0806 13.6066C14.1308 13.4894 14.2028 13.383 14.2929 13.2929L15.2929 12.2929L15.2992 12.2866C16.0467 11.5454 17.1609 11.5446 18.0973 11.7239C19.1029 11.9165 20.2766 12.3836 21.5176 13.0408ZM15.0766 16.3646C14.8434 16.9102 14.5691 17.5522 14.263 18.2689C13.6201 19.7744 12.837 21.6094 12.0005 23.5724C12.0172 24.9083 12.495 26.5596 13.2992 28.2125C14.1127 29.8843 15.2178 31.4702 16.3738 32.6262C17.8262 34.0786 19.5911 35.1801 21.2758 35.9172C22.9347 36.6429 24.4417 36.9835 25.4282 36.9994C27.391 36.1629 29.2258 35.3799 30.7312 34.737C31.4479 34.431 32.0899 34.1567 32.6355 33.9235C31.9572 33.6838 31.2321 33.3562 30.4824 32.9592C27.9891 31.6387 25.0353 29.4495 22.2929 26.7071C19.5505 23.9647 17.3613 21.011 16.0408 18.5176C15.6438 17.7679 15.3162 17.0429 15.0766 16.3646ZM22.162 38.3902C21.6112 38.2131 21.0443 37.9989 20.4742 37.7495C18.6034 36.931 16.6183 35.6992 14.9596 34.0404C13.6267 32.7076 12.3985 30.9324 11.5008 29.0875C11.1488 28.3642 10.841 27.6163 10.5973 26.8677C10.5935 26.8766 10.5897 26.8856 10.5859 26.8945C9.69703 28.9839 8.80235 31.0908 7.99455 33H8C8 33.7825 8.2797 34.7197 8.78583 35.686C9.28686 36.6425 9.97547 37.5613 10.7071 38.2929C12.5704 40.1562 14.8294 41 16 41V41.0056C17.9092 40.1978 20.0162 39.3031 22.1056 38.4142C22.1244 38.4062 22.1432 38.3982 22.162 38.3902ZM4.94875 40.3163C5.04017 40.042 5.71503 38.4102 6.72255 36.0143C6.8137 36.2175 6.91133 36.4177 7.01417 36.614C7.61314 37.7575 8.42453 38.8387 9.29289 39.7071C10.4361 40.8503 11.7522 41.7128 13.0092 42.2677C10.6006 43.2807 8.959 43.9596 8.68384 44.0514C8.09623 44.2472 7.64975 44.3094 7.23648 44.2319C6.83369 44.1563 6.33798 43.9237 5.70718 43.2929C5.07638 42.6621 4.84385 42.1664 4.76826 41.7636C4.69071 41.3504 4.75288 40.9039 4.94875 40.3163ZM44.5 4C45.3284 4 46 3.32843 46 2.5C46 1.67157 45.3284 1 44.5 1C43.6716 1 43 1.67157 43 2.5C43 3.32843 43.6716 4 44.5 4ZM21.8 12.6C23.4306 10.4259 24.0337 8.16475 23.74 6.10858C23.4466 4.05484 22.2722 2.31294 20.5547 1.16795L19.4453 2.83205C20.7278 3.68706 21.5534 4.94516 21.76 6.39142C21.9663 7.83525 21.5694 9.57411 20.2 11.4L21.8 12.6ZM32.7071 3.29289C32.3166 2.90237 31.6834 2.90237 31.2929 3.29289C30.9024 3.68342 30.9024 4.31658 31.2929 4.70711L32.2929 5.70711C32.6834 6.09763 33.3166 6.09763 33.7071 5.70711C34.0976 5.31658 34.0976 4.68342 33.7071 4.29289L32.7071 3.29289ZM38.6 13.3C39.8836 12.3373 40.4766 10.9181 40.6205 9.40731C40.763 7.91134 40.4759 6.2655 39.9487 4.68377L38.0513 5.31623C38.5241 6.7345 38.737 8.08866 38.6295 9.21769C38.5234 10.3319 38.1164 11.1627 37.4 11.7C35.8256 12.8808 34.2935 12.5426 32.2425 12.0299C32.0346 11.9779 31.8069 11.9162 31.5639 11.8504C30.7448 11.6285 29.7513 11.3593 28.7536 11.2554C27.4082 11.1152 25.915 11.2488 24.47 12.152C23.1651 12.9676 22.2363 13.8574 21.6793 15.1725C21.1456 16.4325 21 17.9812 21 20L23 20C23 18.0188 23.1545 16.8175 23.5209 15.9525C23.864 15.1426 24.4351 14.5324 25.53 13.848C26.4849 13.2512 27.4917 13.1348 28.5463 13.2446C29.368 13.3302 30.1384 13.5384 30.9277 13.7516L30.9277 13.7516C31.201 13.8255 31.4767 13.8999 31.7575 13.9701L31.8617 13.9962C33.7941 14.4801 36.2174 15.0869 38.6 13.3ZM29.9487 6.31623C30.1233 5.79228 29.8402 5.22596 29.3162 5.05132C28.7923 4.87667 28.226 5.15983 28.0513 5.68377L27.0513 8.68377C26.8767 9.20772 27.1598 9.77404 27.6838 9.94868C28.2077 10.1233 28.774 9.84017 28.9487 9.31623L29.9487 6.31623ZM36.8944 7.55279C37.1414 8.04676 36.9412 8.64744 36.4472 8.89443L34.4472 9.89443C33.9532 10.1414 33.3526 9.94119 33.1056 9.44721C32.8586 8.95324 33.0588 8.35256 33.5528 8.10557L35.5528 7.10557C36.0468 6.85858 36.6474 7.05881 36.8944 7.55279ZM47 23C37.7213 23 32.2917 27.5121 30.8137 29.5812L29.1863 28.4188C31.0416 25.8213 37.0787 21 47 21V23ZM8 15.5C8 16.3284 7.32843 17 6.5 17C5.67157 17 5 16.3284 5 15.5C5 14.6716 5.67157 14 6.5 14C7.32843 14 8 14.6716 8 15.5ZM35.5 46C36.3284 46 37 45.3284 37 44.5C37 43.6716 36.3284 43 35.5 43C34.6716 43 34 43.6716 34 44.5C34 45.3284 34.6716 46 35.5 46ZM37 20.5C37 21.3284 36.3284 22 35.5 22C34.6716 22 34 21.3284 34 20.5C34 19.6716 34.6716 19 35.5 19C36.3284 19 37 19.6716 37 20.5ZM27.5 19C28.3284 19 29 18.3284 29 17.5C29 16.6716 28.3284 16 27.5 16C26.6716 16 26 16.6716 26 17.5C26 18.3284 26.6716 19 27.5 19ZM45 8.5C45 9.32843 44.3284 10 43.5 10C42.6716 10 42 9.32843 42 8.5C42 7.67157 42.6716 7 43.5 7C44.3284 7 45 7.67157 45 8.5ZM16 3.5C16 4.32843 15.3284 5 14.5 5C13.6716 5 13 4.32843 13 3.5C13 2.67157 13.6716 2 14.5 2C15.3284 2 16 2.67157 16 3.5ZM37.7071 37.2929C37.3166 36.9024 36.6834 36.9024 36.2929 37.2929C35.9024 37.6834 35.9024 38.3166 36.2929 38.7071L39.2929 41.7071C39.6834 42.0976 40.3166 42.0976 40.7071 41.7071C41.0976 41.3166 41.0976 40.6834 40.7071 40.2929L37.7071 37.2929ZM16.3162 6.05132C16.8402 6.22596 17.1233 6.79228 16.9487 7.31623L15.9487 10.3162C15.774 10.8402 15.2077 11.1233 14.6838 10.9487C14.1598 10.774 13.8767 10.2077 14.0513 9.68377L15.0513 6.68377C15.226 6.15983 15.7923 5.87667 16.3162 6.05132ZM8.70711 3.29289C8.31658 2.90237 7.68342 2.90237 7.29289 3.29289C6.90237 3.68342 6.90237 4.31658 7.29289 4.70711L10.2929 7.70711C10.6834 8.09763 11.3166 8.09763 11.7071 7.70711C12.0976 7.31658 12.0976 6.68342 11.7071 6.29289L8.70711 3.29289ZM42.8944 28.5528C43.1414 29.0468 42.9412 29.6474 42.4472 29.8944L40.4472 30.8944C39.9532 31.1414 39.3526 30.9412 39.1056 30.4472C38.8586 29.9532 39.0588 29.3526 39.5528 29.1056L41.5528 28.1056C42.0468 27.8586 42.6474 28.0588 42.8944 28.5528ZM44.5547 25.1679C44.0952 24.8616 43.4743 24.9858 43.1679 25.4453C42.8616 25.9048 42.9858 26.5257 43.4453 26.8321L46.4453 28.8321C46.9048 29.1384 47.5257 29.0142 47.8321 28.5547C48.1384 28.0952 48.0142 27.4743 47.5547 27.1679L44.5547 25.1679Z" />
</svg>
