<svg width="100" height="100" viewBox="0 0 100 100" xmlns="http://www.w3.org/2000/svg">
<path fill-rule="evenodd" clip-rule="evenodd" d="M19.6715 2.6199C20.5558 3.59971 22 5.83709 22 10C22 12.5 21.5 14 20 14C18.5 14 17 12.5 17 10C17 6.25339 17.9281 3.89888 18.5198 2.77845C18.7621 2.31978 19.3239 2.23484 19.6715 2.6199ZM20 27C20 20.5004 15.2999 15.147 8.15423 11.8124L9.84577 8.18766C17.7001 11.853 24 18.2996 24 27H20ZM17.1117 43.9978C18.6637 42.5013 20 40.4874 20 38H24C24 42.0127 21.8363 44.9988 19.8883 46.8772C18.9017 47.8286 17.9218 48.5452 17.1893 49.0248C16.8213 49.2658 16.5107 49.4502 16.2864 49.5772C16.174 49.6408 16.0829 49.6903 16.0165 49.7256C15.9833 49.7432 15.9562 49.7573 15.9357 49.7679L15.91 49.781L15.9009 49.7856L15.8973 49.7874L15.8958 49.7882C15.8951 49.7885 15.8944 49.7889 15 48C14.1056 46.2112 14.1049 46.2115 14.1044 46.2118L14.1044 46.2117C14.1104 46.2086 14.1227 46.2023 14.1407 46.1927C14.1768 46.1735 14.2361 46.1414 14.3152 46.0966C14.4736 46.0069 14.71 45.867 14.9982 45.6784C15.5782 45.2986 16.3483 44.734 17.1117 43.9978ZM61 25L61.3922 23.0389L59.801 22.7206L59.1647 24.2052L59.1646 24.2054C59.1627 24.2097 59.158 24.2201 59.1504 24.2364C59.1351 24.2695 59.1079 24.3266 59.0682 24.4052C58.9888 24.5624 58.8598 24.8048 58.6756 25.1117C58.3069 25.7262 57.7208 26.5935 56.8753 27.5518C55.6409 28.9508 53.8562 30.5415 51.3794 31.8305C50.5325 30.5413 49.3851 29.4666 48.0129 28.6138C45.0662 26.7826 41.1514 26 37 26C33.6341 26 29.3548 27.2319 26.0958 28.3601C24.4277 28.9375 22.9549 29.5138 21.899 29.9458C21.3704 30.1621 20.9445 30.3428 20.649 30.4703C20.5012 30.5341 20.3859 30.5846 20.3065 30.6197L20.2147 30.6603L20.1898 30.6715L20.1827 30.6746L20.1805 30.6756L20.1798 30.676C20.1795 30.6761 20.1793 30.6762 21 32.5L20.1793 30.6762L20.2751 34.3622L20.2747 34.3629L20.2743 34.3637L20.2745 34.3638L20.2751 34.364L20.2865 34.3685C20.2986 34.3734 20.3187 34.3814 20.3465 34.3927C20.402 34.4153 20.4875 34.4508 20.5989 34.4985C20.8218 34.594 21.1465 34.7382 21.5386 34.927C22.328 35.3071 23.3659 35.856 24.3906 36.5391C25.4272 37.2302 26.3751 38.0092 27.0459 38.829C27.718 39.6506 28 40.372 28 41C28 41.1074 27.9601 41.3791 27.7362 41.894C27.5186 42.3944 27.1854 42.9961 26.7318 43.737C26.4207 44.2452 26.0251 44.8587 25.5873 45.5378C24.8686 46.6527 24.036 47.9442 23.2761 49.236C20.6874 53.6369 18 59.4976 18 67C18 74.3478 20.0945 82.0673 24.8098 87.9951C29.5753 93.986 36.9085 98 47 98C54.7747 98 60.0737 96.4431 63.4905 94.8031C65.1949 93.9849 66.4169 93.1528 67.2338 92.4993C67.3102 92.4381 67.383 92.3786 67.4523 92.3208C71.1484 93.8221 75.4818 95 80 95C86.1607 95 90.1327 94.2306 92.6325 93.3974C93.8843 92.9801 94.7688 92.5461 95.3727 92.1838C95.6745 92.0027 95.9051 91.8402 96.0755 91.7076C96.1607 91.6414 96.2306 91.5828 96.2866 91.5334C96.3146 91.5087 96.3392 91.4863 96.3604 91.4663C96.371 91.4564 96.3808 91.447 96.3897 91.4383L96.4026 91.4258L96.4085 91.4199L96.4114 91.417C96.4128 91.4156 96.4142 91.4142 95 90C96.9157 90.5747 96.9158 90.5741 96.916 90.5734L96.9165 90.5719L96.9176 90.5682L96.9206 90.5579L96.9298 90.5264C96.9373 90.5005 96.9476 90.4647 96.9603 90.4189C96.9858 90.3275 97.0214 90.1962 97.0656 90.0245C97.1542 89.6809 97.2773 89.1754 97.4233 88.502C97.7154 87.1553 98.0991 85.1373 98.4808 82.4014C99.2443 76.9296 100 68.5871 100 57L96.3814 55.8329C96.3778 55.8302 96.3779 55.8301 96.378 55.83L96.3769 55.8314L96.3694 55.8415C96.3583 55.8565 96.3385 55.8827 96.3101 55.9196C96.2534 55.9932 96.1621 56.1091 96.0361 56.2611C95.7841 56.5653 95.3938 57.0135 94.8637 57.5582C93.8025 58.6484 92.1873 60.1185 90.0053 61.5928C89.1764 62.1529 88.2656 62.7138 87.2716 63.2549C88.3436 61.75 89 60.0054 89 58C89 56.0525 88.352 54.4599 87.7365 53.3827C87.681 53.2857 87.6255 53.1922 87.5704 53.1025C88.0274 52.7208 88.456 52.3271 88.8526 51.921C90.7323 49.9966 92 47.6784 92 45.0001C92 41.6917 91.1716 39.5932 89.9142 38.3358C89.7935 38.2151 89.6715 38.1049 89.5492 38.0046C90.4549 36.4564 91 34.7776 91 33.0001C91 29.512 89.807 27.3553 88.2 26.15C87.4427 25.582 86.6842 25.297 86.1101 25.1535C85.8219 25.0814 85.5737 25.0433 85.3849 25.0231C85.2902 25.013 85.2094 25.0072 85.1448 25.004C85.1124 25.0024 85.084 25.0014 85.0598 25.0008L85.0267 25.0002L85.0125 25.0001L85.0061 25L85.003 25C85.0015 25 85 25 85 27L85 25L84.1708 25L83.5868 25.5848L83.5863 25.5853L83.5857 25.5859L83.5854 25.5862L83.5849 25.5867L83.5727 25.5987C83.5598 25.6113 83.5382 25.6324 83.5078 25.6616C83.4472 25.7198 83.3519 25.81 83.2229 25.9284C82.9648 26.1652 82.5721 26.5144 82.052 26.946C81.0111 27.8095 79.4637 28.9992 77.467 30.2753C74.793 31.9842 71.332 33.8361 67.2173 35.2725C67.7359 33.8766 68 32.4439 68 31.0001C68 27.6998 66.298 25.6423 64.6469 24.4866C63.8443 23.9247 63.0541 23.5709 62.4698 23.3566C62.1747 23.2484 61.9238 23.1728 61.7387 23.1226C61.646 23.0974 61.5691 23.0784 61.5106 23.0648L61.4844 23.0587L61.4584 23.0529L61.4368 23.0482L61.4108 23.0427L61.4006 23.0405L61.3962 23.0397L61.3941 23.0392C61.3932 23.0391 61.3922 23.0389 61 25ZM95 90L96.4142 91.4142L96.7708 91.0577L96.9157 90.5747L95 90ZM20.2747 34.3629L20.2732 34.3633L20.2733 34.3633L20.2747 34.3629ZM61.7595 91.197C62.3401 90.9183 62.8447 90.642 63.2786 90.3804C63.2067 90.3428 63.1352 90.3052 63.0642 90.2676C60.8554 89.0982 59.0373 87.9295 57.7678 87.0507C57.1323 86.6107 56.6321 86.2418 56.2869 85.9798C56.1142 85.8488 55.9802 85.7443 55.8872 85.6709C55.8407 85.6341 55.8044 85.6052 55.7787 85.5845L55.7481 85.5598L55.7388 85.5522L55.7356 85.5497L55.7345 85.5487C55.734 85.5483 55.7335 85.5479 57 84C58.2665 82.4521 58.2661 82.4518 58.2658 82.4516L58.2679 82.4533L58.2851 82.4672C58.3018 82.4806 58.3288 82.5021 58.3658 82.5313C58.4397 82.5897 58.5537 82.6786 58.7053 82.7937C59.0085 83.0238 59.4615 83.3581 60.0447 83.7619C61.2127 84.5705 62.8946 85.6518 64.9358 86.7325C69.0531 88.9122 74.4658 91 80 91C85.8393 91 89.3673 90.2694 91.3675 89.6027C92.3058 89.2899 92.9059 88.9919 93.2516 88.7911C93.3217 88.5084 93.4109 88.1303 93.5142 87.6543C93.7336 86.6424 94.0162 85.1877 94.3117 83.265C94.1544 83.3152 93.992 83.3655 93.8247 83.4157C91.1465 84.2191 87.2031 85 82 85C78.6975 85 75.4674 84.1807 73.1175 83.3974C71.9307 83.0018 70.9407 82.6059 70.2434 82.3071C69.8943 82.1574 69.6171 82.0315 69.4238 81.9413C69.3271 81.8962 69.2512 81.8599 69.1977 81.834L69.1344 81.8031L69.1156 81.7939L69.1095 81.7908L69.1072 81.7897L69.1063 81.7893C69.1059 81.7891 69.1056 81.7889 70 80C70.8944 78.2112 70.8941 78.211 70.8938 78.2109L70.9004 78.2141L70.94 78.2334C70.9773 78.2515 71.0362 78.2797 71.1153 78.3166C71.2735 78.3904 71.512 78.4989 71.8191 78.6305C72.4343 78.8941 73.3193 79.2483 74.3825 79.6027C76.5326 80.3194 79.3025 81 82 81C86.7969 81 90.3535 80.2809 92.6753 79.5844C93.6218 79.3004 94.3649 79.0197 94.9047 78.7918C95.087 77.1868 95.2612 75.3909 95.415 73.3978C95.2505 73.5034 95.0802 73.6093 94.904 73.715C92.1126 75.3898 87.8845 77 82 77V73C87.1155 73 90.6374 71.6102 92.846 70.285C93.9572 69.6183 94.7487 68.96 95.2495 68.4856C95.4752 68.2718 95.6414 68.0958 95.7507 67.9738C95.8386 66.1252 95.9071 64.149 95.9498 62.042C94.9319 62.9416 93.6982 63.9251 92.2447 64.9072C87.37 68.201 80.0304 71.4709 70.1323 71.4998C67.9852 71.8341 65.8902 72 64 72C61.3669 72 59.2467 71.7368 57.7672 71.4678C57.0273 71.3332 56.447 71.1972 56.042 71.0915C55.8395 71.0387 55.6808 70.9934 55.5677 70.9598C55.5112 70.9429 55.4661 70.929 55.4326 70.9184L55.3913 70.9052L55.3772 70.9006L55.3718 70.8988L55.3695 70.8981L55.3685 70.8977C55.368 70.8976 55.3675 70.8974 56 69C56.6325 67.1027 56.632 67.1025 56.6316 67.1024L56.6372 67.1041L56.6632 67.1122L56.7096 67.1262C56.7802 67.1472 56.8949 67.1801 57.0517 67.221C57.3655 67.3029 57.8477 67.4168 58.4828 67.5323C59.7533 67.7633 61.6331 68 64 68C68.2621 68 73.7371 67.0428 78.0812 65.1643C82.6007 63.2099 85 60.6911 85 58C85 56.96 84.6563 56.0616 84.2771 55.3913C83.395 55.9105 82.4607 56.402 81.4872 56.8671C75.6273 59.6669 67.9243 61.7069 60.3288 62.9728L59.6712 59.0272C67.0757 57.7932 74.3727 55.8332 79.7628 53.2579C82.4614 51.9686 84.5764 50.5744 85.9911 49.126C87.3927 47.691 88 46.3217 88 45.0001C88 42.3083 87.3284 41.4069 87.0858 41.1642L87.0787 41.1572C85.4015 42.8506 83.2749 44.4037 80.8778 45.7929C75.1308 49.1236 67.5176 51.6914 59.8288 52.9728L59.1712 49.0272C66.4824 47.8087 73.6192 45.3764 78.8722 42.3321C81.5002 40.809 83.579 39.1775 84.9788 37.5375C86.3794 35.8966 87 34.3717 87 33.0001C87 30.488 86.193 29.6448 85.8 29.35C85.7215 29.2911 85.6431 29.2419 85.567 29.2007C85.3051 29.4332 84.9841 29.7108 84.606 30.0245C83.4569 30.9778 81.7763 32.2683 79.621 33.6458C75.3167 36.3966 69.0774 39.5204 61.3686 40.9658C53.8849 42.369 49.6613 45.8041 47.2309 50.0021C44.7407 54.3032 44 59.6356 44 65H40C40 59.3644 40.7593 53.1968 43.7691 47.998C44.8155 46.1906 46.1183 44.5271 47.7184 43.056C47.7527 42.9627 47.7964 42.8418 47.847 42.6976C47.9785 42.3223 48.1542 41.7951 48.3293 41.1918C48.6938 39.9362 49 38.5365 49 37.5C49 35.0018 47.8818 33.2418 45.9016 32.0112C43.8199 30.7175 40.7346 30 37 30C34.3659 30 30.6452 31.0181 27.4042 32.14C26.8519 32.3312 26.3216 32.5225 25.8223 32.708C26.082 32.8672 26.3454 33.0349 26.6094 33.2109C27.8228 34.0199 29.1249 35.0533 30.1417 36.296C31.157 37.537 32 39.1281 32 41C32 41.8927 31.7275 42.746 31.4045 43.4889C31.0752 44.2463 30.6272 45.0352 30.1432 45.8256C29.715 46.525 29.2809 47.1958 28.8306 47.8916L28.8305 47.8917L28.8301 47.8922C28.1731 48.9075 27.4816 49.9759 26.7239 51.2641C24.3127 55.3631 22 60.5025 22 67C22 73.6522 23.9055 80.4328 27.9402 85.505C31.9247 90.514 38.0914 94 47 94C54.2253 94 58.9263 92.557 61.7595 91.197ZM61.805 36.7977C61.4179 36.8812 61.0267 36.9602 60.6314 37.0343C57.6385 37.5955 55.0457 38.4614 52.8083 39.5788C52.9243 38.883 53 38.1726 53 37.5C53 36.8298 52.9456 36.188 52.8408 35.575C56.0127 33.9964 58.2999 31.9831 59.8747 30.1983C60.7724 29.1808 61.4397 28.2368 61.9108 27.4869C62.0567 27.5683 62.2056 27.6602 62.3531 27.7635C63.202 28.3577 64 29.3003 64 31.0001C64 32.8461 63.3405 34.8224 61.805 36.7977ZM38.5 38C39.8807 38 41 36.8807 41 35.5C41 34.1193 39.8807 33 38.5 33C37.1193 33 36 34.1193 36 35.5C36 36.8807 37.1193 38 38.5 38ZM29 18C29 12 27.9446 10 27 10C25 10 23 15 23 18C23 21 24.9444 22 26 22C28 22 29 20.5 29 18ZM3.65739 17.4296C4.75222 16.5593 7.11623 15 10 15C12 15 14 16.5 14 18C14 19.5 11.7638 21.0001 10 21C6.66693 21 4.55476 19.5095 3.59832 18.6298C3.23079 18.2917 3.26648 17.7403 3.65739 17.4296ZM14 28C16.8149 28 18 27 18 25C18 23 17 22 14 22C11.8586 22 9.20772 23.5285 7.86573 24.4035C7.38624 24.7161 7.31824 25.3602 7.75613 25.7288C8.8109 26.6168 10.9444 28 14 28ZM18 38.5C18 40.5 17.5 41 16.0001 41C13.816 41 10 37.5 10 34C10 33.5 10.3368 33 11 33C14 33 18 36.5 18 38.5Z"/>
</svg>
