<svg width="100" height="100" viewBox="0 0 100 100" xmlns="http://www.w3.org/2000/svg">
<path fill-rule="evenodd" clip-rule="evenodd" d="M91.1694 10.3775C91.691 10.7534 92 11.3571 92 12C92 26.6501 83.5099 38 71 38C67.1726 38 63.1852 37.0647 60.1095 34.6429C60.0746 34.6155 60.0399 34.5879 60.0054 34.5601C59.5197 35.4582 58.9533 36.6682 58.3796 38.246C56.7232 42.8012 55 50.4386 55 62.5C55 68.5146 56.0835 73.6954 57.1682 77.3715C57.2574 77.6738 57.3466 77.9657 57.4351 78.2469C59.8013 76.3748 63.2133 75 68 75C76.1343 75 80.2986 78.97 82.1075 82.6043C82.6873 83.7691 81.7396 85 80.4384 85H62.2832C63.5225 86.1803 64.4337 87.44 65.0631 88.6244C65.6737 89.7734 64.7396 91 63.4384 91H32.5616C31.2604 91 30.3263 89.7734 30.9369 88.6244C31.3913 87.7694 31.9924 86.8752 32.7578 86H18.5616C17.2604 86 16.3102 84.7612 16.9652 83.6369C18.7559 80.5627 22.5966 78 29 78C33.8277 78 37.1988 79.4567 39.3329 81.491C40.7996 80.9223 42.4612 80.4847 44.3346 80.2348C44.3204 80.1683 44.3062 80.101 44.292 80.0329C43.6375 76.8909 43 72.1288 43 65.5C43 61.178 43.5024 56.8691 44.4996 52.7086C44.4863 47.3035 44.0988 43.2524 43.2502 40.209C40.5382 42.6459 36.9054 44 33 44C24.9013 44 18.8147 40.7298 14.8009 35.6088C10.8352 30.5491 9 23.8296 9 17C9 16.3069 9.3589 15.6631 9.94853 15.2987C10.5357 14.9358 11.2684 14.9015 11.8867 15.2073L11.8875 15.2077L11.8903 15.2091L11.8922 15.21L11.8922 15.2101L11.901 15.2141C11.9183 15.2223 11.9507 15.2374 11.9978 15.2583C12.0922 15.3003 12.2457 15.3658 12.4564 15.4474C12.8778 15.6105 13.5276 15.8375 14.3903 16.0675C16.1152 16.5275 18.6917 17 22 17C24.4725 17 26.1341 16.561 27.9847 16.0675L28.0135 16.0599C29.9052 15.5554 31.9877 15 35 15C39.3746 15 42.7761 16.243 45.025 18.8936C47.2172 21.4773 48 25.0393 48 29C48 31.8465 47.3376 34.3678 46.1833 36.4925C46.9816 38.3626 47.533 40.5131 47.8969 42.9538C50.0804 38.2925 52.9873 34.0134 56.6039 30.3603C55.5752 28.3239 55 25.874 55 23C55 19.3412 56.1318 16.0545 58.4378 13.6717C60.7541 11.2782 64.0585 10 68 10C70.8828 10 72.8644 10.2642 74.7516 10.5159L74.7643 10.5176C76.6233 10.7654 78.3893 11 81 11C83.8883 11 86.0284 10.7594 87.4212 10.5272C88.1178 10.4111 88.6282 10.297 88.9524 10.216C89.1146 10.1754 89.2302 10.1432 89.2994 10.123C89.334 10.1129 89.3569 10.1058 89.3683 10.1023L89.3748 10.1002L89.3743 10.1004L89.3758 10.0999C89.9835 9.90027 90.6502 10.0033 91.1694 10.3775ZM48.38 80.0024C48.3232 79.7557 48.2657 79.494 48.208 79.2171C47.6125 76.3591 47 71.8712 47 65.5C47 56.857 49.1378 48.4097 53.2726 41.2891C51.9972 46.2913 51 53.1817 51 62.5C51 68.9854 52.1665 74.5546 53.3318 78.5035C53.564 79.2907 53.7966 80.0145 54.0204 80.6697C52.3463 80.2692 50.4717 80.0284 48.38 80.0024ZM73.3904 20.0952C68.1756 21.7639 63.6156 24.3117 59.7231 27.5142C59.2638 26.2583 59 24.7677 59 23C59 20.1588 59.8682 17.9455 61.3122 16.4534C62.7459 14.9718 64.9415 14 68 14C70.6107 14 72.3767 14.2346 74.2357 14.4825L74.2484 14.4842C76.1356 14.7358 78.1172 15 81 15C84.0041 15 86.3076 14.7583 87.9095 14.5005C87.0322 26.4201 79.8837 34 71 34C67.7521 34 64.7396 33.1975 62.584 31.5002C62.3512 31.3169 62.1255 31.1209 61.9084 30.9116C65.5192 27.8629 69.7618 25.4561 74.6096 23.9049L73.3904 20.0952ZM41.5416 36.2323C41.5149 36.191 41.488 36.15 41.4609 36.1094C39.4588 33.1063 36.0863 31.4741 29.8466 30.9941L30.1534 27.0059C36.0636 27.4605 40.5347 28.9453 43.569 32.3164C43.8496 31.296 44 30.1877 44 29C44 25.4607 43.2828 23.0228 41.975 21.4815C40.7239 20.007 38.6254 19 35 19C32.5275 19 30.8659 19.439 29.0153 19.9325L28.9865 19.9402C27.0948 20.4446 25.0123 21 22 21C18.3083 21 15.3848 20.4725 13.3597 19.9325C13.2792 19.911 13.2001 19.8895 13.1225 19.8681C13.5617 24.9434 15.1796 29.6077 17.9491 33.1413C21.1853 37.2702 26.0987 40 33 40C36.4442 40 39.5232 38.6469 41.5416 36.2323Z"/>
</svg>
