<svg width="100" height="100" viewBox="0 0 100 100" xmlns="http://www.w3.org/2000/svg">
<path fill-rule="evenodd" clip-rule="evenodd" d="M39.5341 3.86606C40.7786 2.98762 42.6805 2 45 2C46.8053 2 48.4564 2.45383 49.6048 3.71715C49.8355 3.97085 50.0304 4.24065 50.1946 4.52195C50.9684 4.20726 51.8996 4 53 4C54.651 4 56.2065 4.50317 57.3517 5.64829C58.4968 6.79341 59 8.34898 59 10C59 11.1319 58.8271 12.5568 58.5735 14.1562C62.2654 12.1437 66.4991 11 71 11C75.6624 11 80.1185 12.0226 84.0015 14.2688C84.9576 14.8219 85.2843 16.0453 84.7312 17.0015C84.1781 17.9576 82.9547 18.2843 81.9985 17.7312C78.8214 15.8933 75.0805 15 71 15C58.8497 15 49 24.8497 49 37C49 42.0257 49.8368 45.4762 51.0017 47.9862C52.1613 50.4849 53.7046 52.1801 55.332 53.6331C55.9405 54.1764 56.5349 54.6643 57.1447 55.1648L57.1448 55.1649C57.3766 55.3552 57.6106 55.5473 57.8485 55.745C58.6812 56.4369 59.5394 57.1804 60.2967 58.0188C61.8845 59.7767 63 61.9261 63 65C63 72.1528 68.5775 77 74.5 77C77.3048 77 79.0055 76.1482 79.9754 75.4091C80.4732 75.0299 80.8046 74.66 81.0019 74.404C81.1005 74.2761 81.1647 74.1778 81.1986 74.1228C81.2127 74.0999 81.2215 74.0846 81.2251 74.0782C81.7274 73.1103 82.9156 72.7217 83.8944 73.2112C84.8824 73.7051 85.2828 74.9065 84.7889 75.8944L83 75C84.7889 75.8944 84.7883 75.8956 84.7877 75.8967L84.7865 75.8992L84.7839 75.9043L84.7781 75.9156L84.764 75.9428C84.7534 75.9629 84.7406 75.9868 84.7253 76.0144C84.6948 76.0694 84.6547 76.139 84.6042 76.2209C84.5033 76.3847 84.3605 76.5989 84.17 76.846C83.7891 77.34 83.2143 77.9701 82.3996 78.5909C80.7445 79.8518 78.1952 81 74.5 81C69.7199 81 65.1691 78.6941 62.2503 74.8602C61.6936 75.1649 61.1636 75.4194 60.6899 75.628L65.8276 87.1877C66.1541 87.9225 66.0089 88.7813 65.459 89.3679C63.9512 90.9762 60.7065 93.1062 57.0003 94.816C53.2624 96.5406 48.7096 98 44.5 98C38.0693 98 33.9442 97.1004 31.3547 96.1206C30.058 95.63 29.1477 95.1196 28.5298 94.6942C28.2212 94.4817 27.9874 94.2916 27.8161 94.1377C27.7305 94.0607 27.6609 93.9931 27.6056 93.9364C27.5779 93.9081 27.5539 93.8825 27.5332 93.8599C27.5229 93.8487 27.5135 93.8382 27.5048 93.8284L27.4925 93.8144L27.4868 93.8078L27.4841 93.8047C27.4828 93.8031 27.4814 93.8016 29 92.5L27.4814 93.8016C27.1375 93.4003 26.9664 92.8793 27.0054 92.3523L27.9307 79.8616C25.2953 77.9981 22.8555 75.7343 20.7754 72.9631C16.6036 67.4051 14 59.9672 14 50C14 32.9073 15.7535 22.3779 18.1273 16.0478C20.4586 9.83086 23.6936 7 27 7C27.7388 7 28.4584 7.10075 29.1308 7.3147C30.9003 4.81283 33.837 4 36 4C36.9838 4 37.9219 4.13478 38.7577 4.46191C38.9881 4.27017 39.2476 4.06826 39.5341 3.86606ZM60.2528 71.3933C59.6686 71.7087 59.1157 71.9587 58.6516 72.1478C58.275 72.3012 57.9646 72.4114 57.7542 72.4815C57.6492 72.5165 57.5696 72.5414 57.5198 72.5565C57.4949 72.5641 57.4775 72.5692 57.4682 72.5719L57.4634 72.5733L57.4633 72.5734L57.4604 72.5742C56.9019 72.7306 56.4387 73.1219 56.1911 73.6467C55.943 74.1727 55.9361 74.7807 56.1723 75.3123L61.5836 87.4876C60.2482 88.5458 58.0262 89.9376 55.3246 91.184C51.8376 92.7927 47.8903 94 44.5 94C38.4306 94 34.8057 93.1496 32.7702 92.3794C31.9863 92.0828 31.4375 91.7979 31.0738 91.5772L31.7656 82.2383C33.233 83.0347 34.7334 83.7337 36.2427 84.3511L37.7572 80.6489C32.4764 78.4885 27.5684 75.3499 23.9745 70.5619C20.3964 65.7949 18 59.2328 18 50C18 33.0927 19.7464 23.1221 21.8726 17.4522C24.0413 11.6691 26.3064 11 27 11C27.8489 11 28.2934 11.2468 28.5232 11.4767C28.7531 11.7066 29 12.151 29 13C29 14.0438 28.7852 15.5322 28.4079 17.5836C28.2616 18.3791 28.0843 19.2924 27.892 20.2831L27.8919 20.2837L27.8918 20.2843L27.8915 20.2857L27.8913 20.2869L27.8912 20.2875L27.8911 20.288L27.891 20.2883C27.6194 21.6872 27.318 23.2402 27.0315 24.8336C26.0202 30.4591 25 37.5869 25 46C25 49.2254 25.5383 51.481 26.143 52.9928C26.4446 53.7469 26.7594 54.3072 27.0234 54.7032C27.1551 54.9008 27.2735 55.0563 27.3702 55.1738C27.4185 55.2324 27.4613 55.2815 27.4976 55.3214C27.5158 55.3414 27.5323 55.3591 27.547 55.3745L27.5678 55.396L27.5771 55.4055L27.5815 55.41L27.5836 55.4121C27.5847 55.4132 27.5857 55.4142 29 54L27.5857 55.4142C28.3668 56.1953 29.6331 56.1953 30.4142 55.4142C31.1805 54.6479 31.1949 53.4144 30.4575 52.6304C30.4444 52.6145 30.4067 52.5671 30.3516 52.4843C30.2405 52.3178 30.0553 52.0031 29.8569 51.5072C29.6255 50.9287 29.3713 50.0909 29.2003 48.939C29.4228 48.7988 29.6798 48.6406 29.9696 48.4678C31.1681 47.7532 32.9221 46.7932 35.1154 45.8317C37.9225 44.6012 41.421 43.3806 45.3764 42.6585C45.7741 45.425 46.4688 47.7209 47.3733 49.6701C47.4051 49.7386 47.4372 49.8066 47.4694 49.8741C44.4175 51.0493 41.9086 52.8616 39.9513 54.8453C38.2653 56.554 36.9733 58.4031 36.0731 60.1169C35.1904 61.7973 34.6204 63.4709 34.5069 64.8339L38.493 65.1661C38.5461 64.5291 38.872 63.3902 39.6143 61.9769C40.3392 60.5969 41.4012 59.071 42.7986 57.6547C44.5563 55.8733 46.8197 54.2863 49.6003 53.3585C50.5846 54.6449 51.639 55.6981 52.668 56.6169C53.3436 57.2201 54.0339 57.7867 54.6627 58.3028L54.6627 58.3028C54.881 58.482 55.0918 58.655 55.2921 58.8214C56.1 59.4928 56.7731 60.0853 57.3283 60.6999C58.3655 61.8483 59 63.0739 59 65C59 67.3221 59.4514 69.4719 60.2528 71.3933ZM48.5075 23.9497C48.659 22.9959 48.8146 22.0671 48.9706 21.1662C49.2188 19.7333 49.4671 18.3749 49.7015 17.0972L49.7437 16.8674L49.7438 16.8669L49.7438 16.8667L49.7441 16.8651L49.7443 16.8639C49.9621 15.6767 50.1677 14.5559 50.3458 13.5247C50.6616 11.6954 50.9126 10.0326 50.9813 8.68745C51.0228 8.64729 51.0704 8.60486 51.1243 8.56173C51.4203 8.32498 51.9858 8 53 8C53.8489 8 54.2934 8.24683 54.5232 8.47671C54.7531 8.70659 55 9.15102 55 10C55 11.0542 54.782 12.6553 54.4041 14.8441C54.2684 15.6301 54.1159 16.4715 53.9517 17.369C51.796 19.2427 49.9519 21.4656 48.5075 23.9497ZM29.0127 44.4017C29.1304 37.0045 30.0455 30.6749 30.9684 25.5414C31.2615 23.911 31.5401 22.4788 31.7994 21.1461L31.7995 21.1457L31.7998 21.1441L31.7999 21.1437L31.8 21.1427L31.8002 21.1422L31.8006 21.14L31.8006 21.1399C31.9923 20.1546 32.1734 19.2236 32.342 18.3071C32.7147 16.2803 33 14.4562 33 13C33 11.8749 32.7663 10.7942 32.2551 9.85747C33.0548 8.54778 34.5466 8 36 8C37.1946 8 37.5436 8.29617 37.6451 8.40785C37.7818 8.55823 38 8.9585 38 10C38 11.0542 37.782 12.6553 37.4041 14.8441C37.2296 15.8548 37.0274 16.9571 36.8081 18.1525L36.7672 18.3755C36.5328 19.6532 36.2812 21.0292 36.0293 22.4838C35.0689 28.0299 34.0944 34.7737 34.0064 41.9535C33.8385 42.025 33.6728 42.0967 33.5095 42.1683C31.7307 42.948 30.215 43.7286 29.0127 44.4017ZM38.0402 40.4259C38.2337 34.1453 39.0962 28.2163 39.9706 23.1662C40.2188 21.7333 40.4671 20.3749 40.7015 19.0972L40.7437 18.8674L40.7438 18.8669C40.9618 17.6786 41.1676 16.5568 41.3458 15.5247C41.7179 13.3697 42 11.4458 42 10C42 9.12349 41.8982 8.19597 41.5753 7.32951C41.6596 7.26479 41.7482 7.19933 41.8408 7.13394C42.7214 6.51238 43.8194 6 45 6C46.1946 6 46.5436 6.29617 46.6451 6.40785C46.7818 6.55823 47 6.9585 47 8C47 9.05417 46.782 10.6553 46.4041 12.8441C46.2296 13.8548 46.0274 14.9571 45.8081 16.1525L45.7672 16.3755C45.5328 17.6532 45.2812 19.0292 45.0293 20.4838C44.1092 25.7973 43.1761 32.2101 43.0221 39.0524C41.2548 39.4404 39.5879 39.912 38.0402 40.4259ZM61 37C61 31.1452 65.4361 27 71 27C75.8386 27 79.8745 30.4364 80.8003 35.0018C76.7998 35.0741 73.3527 37.313 70.9628 40.2532C68.5319 43.2437 67 47.1806 67 51C67 54.6046 67.9077 58.7082 69.7788 61.9785C71.6529 65.2541 74.7055 68 79 68C82.9624 68 86 65.2416 86 61.5C86 59.1612 84.4926 57.2891 83.4142 56.2108C83.2777 56.0743 83.1416 55.9441 83.0077 55.8207L85.4142 53.4142C86.1953 52.6332 86.1953 51.3668 85.4142 50.5858C84.6332 49.8047 83.3668 49.8047 82.5858 50.5858L78.5858 54.5858C78.3917 54.7798 78.2423 55.0089 78.1429 55.2575L78.9392 57.6955L78.9549 57.7057C78.9738 57.7179 79.0057 57.739 79.0489 57.7682C79.1354 57.8269 79.2657 57.918 79.425 58.0375C79.7471 58.2791 80.1702 58.6236 80.5858 59.0392C81.5074 59.9609 82 60.8388 82 61.5C82 62.7584 81.0376 64 79 64C76.6671 64 74.7197 62.5597 73.2507 59.9921C71.7786 57.4192 71 54.0228 71 51C71 48.192 72.1544 45.1288 74.0667 42.7762C75.9186 40.4979 78.299 39.0926 80.7546 39.0044C80.524 40.0127 80.1461 41.0435 79.6866 42.0315C78.9224 43.6746 78.0077 45.0388 77.4383 45.7506L80.5617 48.2494C81.3256 47.2946 82.411 45.6588 83.3134 43.7185C84.2082 41.7947 85 39.4085 85 37C85 29.268 78.732 23 71 23C63.3091 23 57 28.8548 57 37C57 40.4476 58.148 43.2901 59.2635 45.2423C59.8236 46.2225 60.3853 46.9957 60.8133 47.5306C61.0277 47.7987 61.2101 48.0088 61.3439 48.157C61.4109 48.2311 61.4659 48.2899 61.5068 48.3329L61.5344 48.3617L61.5575 48.3856L61.5745 48.4029L61.5809 48.4093L61.5835 48.412L61.5847 48.4131C61.5853 48.4137 61.5858 48.4142 63 47C64.4142 45.5858 64.4147 45.5863 64.4152 45.5868L64.4034 45.5743C64.3857 45.5558 64.3547 45.5228 64.3123 45.4758C64.2274 45.3818 64.0973 45.2325 63.9367 45.0319C63.6147 44.6293 63.1764 44.0275 62.7365 43.2577C61.852 41.7099 61 39.5524 61 37ZM78.1418 55.2603L78.1429 55.2575L74.0667 42.7762L78.1418 55.2603ZM78.1418 55.2603C78.0213 55.563 77.975 55.8944 78.0128 56.2263C78.0816 56.8304 78.4214 57.3703 78.9361 57.6936L78.1418 55.2603ZM64.4197 45.5913C64.4205 45.5921 64.4205 45.5921 64.4195 45.5911L64.4197 45.5913Z" />
</svg>
