<svg width="50" height="50" viewBox="0 0 50 50" xmlns="http://www.w3.org/2000/svg">
<path fill-rule="evenodd" clip-rule="evenodd" d="M20.2575 0.0298499C20.7933 -0.104099 21.3362 0.221662 21.4701 0.757457L21.9701 2.75746C22.1041 3.29325 21.7783 3.83619 21.2425 3.97014C20.7067 4.10408 20.1638 3.77832 20.0299 3.24253L19.5299 1.24253C19.3959 0.706733 19.7217 0.163799 20.2575 0.0298499ZM10.8 0.399965C10.4686 -0.041863 9.84181 -0.131406 9.39998 0.199965C8.95815 0.531336 8.86861 1.15814 9.19998 1.59996L12.2 5.59996C12.5314 6.04179 13.1582 6.13134 13.6 5.79996C14.0418 5.46859 14.1314 4.84179 13.8 4.39996L10.8 0.399965ZM27.79 3.99996H27.812C28.5985 3.99996 29.258 4.16417 29.7996 4.44232C29.8789 4.4017 29.9676 4.36094 30.0663 4.32148C30.5096 4.14414 31.1374 3.99996 32 3.99996C32.9465 3.99996 34.0306 4.3085 34.9006 4.94122C35.7948 5.59148 36.5 6.62059 36.5 7.99996L36.4999 8.0401C36.5423 8.04597 36.5868 8.05271 36.6332 8.06045C36.9799 8.11824 37.4575 8.23568 37.9473 8.48054C38.4409 8.72736 38.9649 9.11329 39.3633 9.7109C39.7659 10.3148 40 11.075 40 12C40 12.7985 39.7626 13.5123 39.451 14.1074L39.453 14.1085L39.4592 14.1116L39.4728 14.1187C39.4823 14.1238 39.4928 14.1295 39.5043 14.136C39.5272 14.149 39.5539 14.165 39.5838 14.1842C39.6435 14.2226 39.716 14.2741 39.7965 14.3411C39.958 14.4757 40.1495 14.6714 40.3321 14.9453C40.7034 15.5023 41 16.325 41 17.5C41 18.082 40.8107 18.6414 40.5924 19.1054C40.369 19.58 40.0809 20.0264 39.8088 20.4006C39.5918 20.699 39.3762 20.9633 39.1953 21.1736L39.1987 21.1837C39.3653 21.6836 39.5 22.4196 39.5 23.5C39.5 24.5856 39.192 25.6168 38.6757 26.5819L48.5547 33.1679C48.8329 33.3534 49 33.6656 49 34C49 37.2366 47.6674 41.1849 45.4411 44.328C43.2192 47.4648 39.9546 50 36 50C35.6746 50 35.3695 49.8416 35.1822 49.5755L26.4469 37.1621L19.8916 49.4533C19.8667 49.5021 19.8379 49.5486 19.8057 49.5924C19.7936 49.6088 19.7811 49.6248 19.7681 49.6404C19.7464 49.6665 19.7234 49.6913 19.6993 49.7149C19.6754 49.7383 19.6503 49.7604 19.6242 49.7813C19.4531 49.9181 19.2361 50 19 50L18.991 50C11.5983 49.9969 7.07458 46.2748 4.43631 42.5812C3.12411 40.7441 2.27478 38.913 1.75306 37.5435C1.49165 36.8573 1.31097 36.283 1.19477 35.8762C1.13663 35.6728 1.09454 35.5109 1.06647 35.3976C1.05243 35.3409 1.0419 35.2963 1.03461 35.2647L1.02608 35.227L1.02359 35.2157L1.02277 35.212L1.02247 35.2106C1.02235 35.21 1.02224 35.2095 2.00004 35L1.02224 35.2095C0.938515 34.8188 1.09543 34.4157 1.4213 34.1845L12.439 26.3654C12.2096 26.114 11.9555 25.8147 11.7007 25.475C10.8997 24.4069 10.0008 22.8185 10.0009 21C10.0009 19.8754 10.1928 19.0285 10.6358 18.257C10.9883 17.6432 11.4838 17.1161 12.0153 16.5752C12.1238 14.9915 12.8295 13.8822 13.5438 13.1679C13.8906 12.8211 14.2367 12.5691 14.5136 12.396C14.5554 11.4459 14.7095 10.4925 15.113 9.71305C15.3672 9.22193 15.7311 8.77902 16.241 8.46405C16.5327 8.28384 16.8517 8.15816 17.1935 8.08348C17.2777 7.87023 17.3994 7.63504 17.5756 7.40007C18.1782 6.59656 19.2566 6.00007 21.0007 6.00002C21.5567 6.00001 22.1971 6.10714 22.8713 6.28679C22.9343 5.9353 23.0518 5.60415 23.2427 5.30532C23.5679 4.79634 24.0355 4.49099 24.5328 4.31017C25.0098 4.1367 25.5432 4.0666 26.069 4.03322C26.5929 3.99996 27.182 3.99996 27.79 3.99996ZM28.2706 6.03196L27.79 3.99996L28.2702 6.03189C28.1323 6.01129 27.9802 5.99996 27.812 5.99996C27.1778 5.99996 26.6497 6.00038 26.1957 6.02921C25.737 6.05833 25.4267 6.11323 25.2162 6.18976C25.026 6.25894 24.9623 6.32859 24.9281 6.38211C24.8865 6.44733 24.8179 6.60356 24.8124 6.9537C25.8354 7.37467 26.9014 7.91346 27.8966 8.52172C28.2125 8.71479 28.524 8.91648 28.8267 9.12541C28.8764 9.09791 28.9291 9.07429 28.9846 9.05508L28.9846 9.05511L28.9857 9.05471L29.0013 9.0486C29.0208 9.04068 29.0551 9.02599 29.0992 9.00397C29.1895 8.95882 29.3077 8.88935 29.4218 8.79424C29.6427 8.6102 29.812 8.36887 29.812 7.99996C29.812 7.631 29.7137 7.10341 29.4303 6.69843C29.2309 6.41365 28.9 6.12614 28.2706 6.03196ZM28.2706 6.03196L28.2702 6.03189L28.9846 9.05508L28.9857 9.05471L28.2706 6.03196ZM36.0589 10.0034C35.9056 10.3311 35.7274 10.6135 35.55 10.85C35.3152 11.163 35.0797 11.3991 34.8988 11.5599C34.808 11.6406 34.7297 11.7034 34.6705 11.7485C34.6409 11.7711 34.6159 11.7893 34.5964 11.8032L34.5713 11.8208L34.5619 11.8272L34.558 11.8298L34.5563 11.831L34.5555 11.8315C34.5551 11.8318 34.5547 11.832 34.0139 11.0208L34.5547 11.832C34.0952 12.1384 33.4743 12.0142 33.168 11.5547C32.8634 11.0978 32.9844 10.4814 33.4375 10.1732L33.4443 10.1682L33.4585 10.1577C33.4813 10.1402 33.5203 10.1093 33.5701 10.0651C33.6704 9.97584 33.8099 9.83688 33.95 9.64997C34.2282 9.27913 34.5 8.73446 34.5 7.99996C34.5 7.37934 34.2052 6.90845 33.7243 6.55871C33.2193 6.19143 32.5534 5.99996 32 5.99996C31.7458 5.99996 31.5338 6.01681 31.3592 6.04167C31.7122 6.75228 31.812 7.48833 31.812 7.99996C31.812 9.13106 31.2313 9.88973 30.7022 10.3307C30.6415 10.3812 30.5811 10.4281 30.5217 10.4714C30.6929 10.6308 30.8559 10.7922 31.0094 10.9553C31.8092 11.8052 32.4998 12.8582 32.4998 13.9999C32.4998 15.0914 31.9592 15.8362 31.4459 16.2833L31.4629 16.3105C31.7678 16.8018 32 17.3758 32 18C32 19.2913 31.4919 20.2489 30.6172 20.832C30.0895 21.1838 29.4836 21.3617 28.8947 21.4423C28.5638 22.8975 27.4757 24.0622 25.9585 23.9991C25.787 23.992 25.6246 23.9797 25.4712 23.9633C25.4017 24.5076 25.1933 25.0958 24.7071 25.5821C24.0784 26.2108 23.1541 26.5 22 26.5C21.276 26.5 20.4234 26.2025 19.6617 25.8692C19.0723 25.6114 18.4559 25.2945 17.8657 24.9667L3.14327 35.4149C3.24661 35.7685 3.40229 36.2547 3.62203 36.8315C4.10031 38.0869 4.87597 39.7558 6.06378 41.4187C8.26698 44.5032 11.8752 47.5628 17.7139 47.9572C17.5621 47.5872 17.352 47.1605 17.0842 46.6902C16.4503 45.5772 15.5232 44.2733 14.3757 42.9747C12.0631 40.3579 8.96692 37.8877 5.72528 36.9615C5.19424 36.8098 4.88675 36.2563 5.03848 35.7253C5.1902 35.1942 5.74369 34.8868 6.27472 35.0385C10.0331 36.1123 13.4369 38.8921 15.8743 41.6503C17.1018 43.0392 18.1122 44.4541 18.8221 45.7004C18.9682 45.957 19.1029 46.2086 19.2248 46.4536L26.1177 33.5294C26.2287 33.3213 26.4097 33.1591 26.6287 33.0715C29.0684 32.0956 31.8481 30.6404 33.9977 28.9087C36.1936 27.1398 37.5 25.2732 37.5 23.5C37.5 22.5803 37.3847 22.0663 37.3014 21.8162C37.267 21.713 37.2383 21.6557 37.226 21.6333C36.904 21.2407 36.9261 20.6603 37.2923 20.2935L37.2925 20.2933L37.2927 20.2931L37.2929 20.2929L37.2944 20.2913L37.3067 20.2788L37.3304 20.2544L37.3607 20.2227C37.4088 20.172 37.4795 20.0961 37.5651 19.9997C37.7375 19.8057 37.9655 19.5347 38.1913 19.2243C38.4191 18.911 38.631 18.5762 38.7827 18.2539C38.9393 17.9211 39 17.6679 39 17.5C39 16.6749 38.7967 16.2477 38.668 16.0547C38.6006 15.9536 38.5421 15.8992 38.5161 15.8776C38.5119 15.8741 38.5084 15.8713 38.5059 15.8694C38.4196 15.8204 38.3432 15.7603 38.2775 15.6917C38.1726 15.7987 38.0747 15.8923 37.9883 15.9715C37.8798 16.0709 37.7878 16.1492 37.7207 16.2043C37.6871 16.2319 37.6596 16.2539 37.6392 16.2699L37.6139 16.2894L37.6055 16.2958L37.6024 16.2982L37.6011 16.2991L37.6006 16.2996C37.6003 16.2998 37.6 16.3 37.0063 15.5083L37.6 16.3C37.1582 16.6313 36.5314 16.5418 36.2 16.1C35.8693 15.659 35.9579 15.0337 36.3975 14.7018L36.3976 14.7018L36.3984 14.7012L36.3991 14.7006L36.3996 14.7003C36.3998 14.7001 36.4 14.7 37 15.4999L36.4 14.7L36.4058 14.6954C36.4147 14.6884 36.4302 14.6762 36.4512 14.6589C36.4935 14.6242 36.5578 14.5696 36.6368 14.4972C36.7961 14.3512 37.0085 14.1386 37.2192 13.8753C37.6568 13.3282 38 12.6719 38 12C38 11.425 37.8592 11.0602 37.6992 10.8203C37.5351 10.5742 37.3092 10.3976 37.0528 10.2694C36.7925 10.1392 36.5201 10.0692 36.3044 10.0332C36.1997 10.0158 36.1144 10.0074 36.0589 10.0034ZM21.0007 8.00002C21.5718 8.00001 22.4698 8.20099 23.5556 8.60818C24.6188 9.00691 25.7805 9.57238 26.8537 10.2282C27.9319 10.8872 28.8839 11.6151 29.5529 12.3259C30.2529 13.0697 30.4998 13.6417 30.4998 13.9999C30.4998 14.3567 30.3416 14.5941 30.1317 14.7757C29.2363 13.96 28.1094 13.1866 27.0214 12.5217C25.8645 11.8146 24.7127 11.2071 23.8534 10.7774C23.4229 10.5621 23.0635 10.3904 22.8108 10.2721C22.6844 10.2129 22.5845 10.167 22.5156 10.1356L22.436 10.0995L22.4147 10.09L22.4088 10.0873L22.407 10.0866L22.4065 10.0863C22.4063 10.0862 22.4061 10.0862 22 11L22.4061 10.0862C21.9014 9.86185 21.3105 10.0891 21.0862 10.5938C20.8619 11.0985 21.0891 11.6894 21.5937 11.9137L21.5938 11.9138L21.5945 11.9141L21.5984 11.9158L21.6156 11.9235L21.6865 11.9556C21.7494 11.9843 21.8429 12.0273 21.9626 12.0833C22.2021 12.1955 22.5459 12.3597 22.959 12.5663C23.7872 12.9804 24.8855 13.5603 25.9785 14.2282C27.0794 14.901 28.1369 15.6402 28.9071 16.3676C29.2918 16.7309 29.5784 17.0668 29.7636 17.3652C29.9509 17.6669 30 17.8741 30 18C30 18.7087 29.7581 19.0011 29.5078 19.1679C29.3169 19.2952 29.0578 19.3883 28.7388 19.443C28.6485 19.2573 28.5419 19.0843 28.4302 18.9262C28.1192 18.4856 27.7015 18.0639 27.2463 17.6719C26.3343 16.8866 25.1485 16.1164 24.0039 15.4487C22.8513 14.7764 21.7035 14.1867 20.8468 13.7663C20.4176 13.5557 20.0595 13.3865 19.8078 13.2697C19.682 13.2113 19.5826 13.1659 19.5142 13.1348L19.4353 13.0992L19.4143 13.0898L19.4086 13.0873L19.4069 13.0865L19.4064 13.0863C19.4063 13.0862 19.4061 13.0862 19 14L19.4061 13.0862C18.9014 12.8618 18.3105 13.0891 18.0862 13.5938C17.8619 14.0985 18.0891 14.6894 18.5937 14.9137L18.5938 14.9138L18.5947 14.9141L18.5987 14.9159L18.6163 14.9238L18.6879 14.9562C18.7513 14.9849 18.8454 15.0279 18.9656 15.0837C19.2061 15.1954 19.5511 15.3583 19.9657 15.5618C20.7964 15.9694 21.8986 16.5361 22.9961 17.1762C24.1014 17.821 25.1657 18.5196 25.9412 19.1874C26.3297 19.522 26.6151 19.8229 26.7963 20.0796C26.9853 20.3474 27 20.4804 27 20.5C27 21.6736 26.3327 22.0129 26.0415 22.0008C25.4467 21.9761 25.0473 21.8707 24.8177 21.7878C24.7712 21.771 24.7313 21.7549 24.6978 21.7405C24.4836 21.4973 24.2391 21.2631 23.983 21.0412C23.2152 20.3757 22.2203 19.716 21.2645 19.1425C20.3011 18.5645 19.3422 18.0532 18.627 17.6877C18.2685 17.5045 17.9694 17.3569 17.7592 17.2548C17.654 17.2037 17.5709 17.1639 17.5137 17.1367L17.4476 17.1054L17.4299 17.0971L17.425 17.0948L17.4236 17.0941L17.4231 17.0939C17.423 17.0938 17.4229 17.0938 17 18L17.4229 17.0938C16.9224 16.8602 16.3274 17.0766 16.0938 17.5771C15.8603 18.0775 16.0766 18.6725 16.577 18.9061L16.5771 18.9061L16.5771 18.9061L16.5777 18.9064L16.581 18.908L16.5954 18.9148L16.6547 18.9428C16.7074 18.9679 16.7854 19.0052 16.8853 19.0538C17.0852 19.1509 17.3721 19.2924 17.7167 19.4685C18.4077 19.8217 19.3238 20.3105 20.2355 20.8575C21.1547 21.409 22.0348 21.9992 22.6732 22.5525C22.851 22.7066 23.0007 22.8499 23.1229 22.9808C23.1828 23.0903 23.2641 23.1899 23.3658 23.2732C23.4708 23.4207 23.4946 23.4977 23.4994 23.5132L23.4999 23.5151C23.4975 23.8517 23.4124 24.0483 23.2929 24.1679C23.1716 24.2892 22.8458 24.5 22 24.5C21.7239 24.5 21.2016 24.3599 20.4633 24.0369C19.7629 23.7305 18.9875 23.3142 18.2539 22.8862C17.5235 22.4601 16.8515 22.0326 16.3611 21.7108C16.1164 21.5502 15.918 21.4166 15.7814 21.3236C15.7131 21.2772 15.6603 21.2409 15.625 21.2165L15.5854 21.189L15.5759 21.1824L15.5738 21.1809L15.5734 21.1807L15.5734 21.1807C15.1209 20.864 14.4974 20.9741 14.1807 21.4265C13.864 21.879 13.9741 22.5025 14.4265 22.8192L15 22C14.4265 22.8192 14.4266 22.8193 14.4267 22.8193L14.427 22.8196L14.428 22.8203L14.4314 22.8226L14.4434 22.831L14.4883 22.862C14.5272 22.8889 14.5838 22.9278 14.6561 22.9771C14.8007 23.0755 15.0086 23.2154 15.2638 23.3829C15.4746 23.5212 15.7184 23.6789 15.9864 23.8479L14.0847 25.1975C13.8532 24.9556 13.5764 24.6426 13.3007 24.275C12.6018 23.3431 12.0008 22.1815 12.0009 21C12.0009 20.1246 12.1451 19.6448 12.3702 19.253C12.6258 18.8079 13.0177 18.4072 13.713 17.702C13.8975 17.5149 14.001 17.2627 14.001 17C14.001 15.8121 14.4845 15.0556 14.958 14.5821C15.201 14.3391 15.4447 14.1686 15.6247 14.0606C15.7141 14.007 15.7856 13.9701 15.8303 13.9483C15.8527 13.9375 15.8681 13.9305 15.8755 13.9273L15.8796 13.9255L15.8796 13.9255C16.255 13.7719 16.5007 13.4064 16.5008 13.0002C16.5011 11.9349 16.6286 11.1358 16.8891 10.6325C17.0098 10.3994 17.1458 10.2559 17.2921 10.1656C17.4372 10.0759 17.6546 10 18.0007 10C18.2659 10 18.5203 9.89465 18.7078 9.7071C18.8893 9.52558 18.9938 9.28148 19.0004 9.02552L19.0009 9.02054C19.0025 9.00556 19.0069 8.97341 19.0177 8.93001C19.0397 8.84212 19.0847 8.72136 19.1756 8.60004C19.323 8.40357 19.7446 8.00006 21.0007 8.00002ZM39.0063 14.9874L39.3866 14.2268L39.3924 14.2163C39.337 14.3265 39.2266 14.5469 39.0063 14.9874ZM36.5064 47.9818L27.5013 35.1851L27.712 34.7901C30.1921 33.7676 33.0055 32.2762 35.2524 30.4662C36.092 29.7898 36.8838 29.0434 37.5511 28.2359L46.9865 34.5261C46.851 37.2038 45.7064 40.4933 43.809 43.1719C41.8939 45.8756 39.3483 47.7781 36.5064 47.9818ZM33.4453 10.1679L33.4446 10.1684C33.445 10.1682 33.4453 10.1679 34 11L33.4453 10.1679ZM4.10557 8.55279C4.35256 8.05881 4.95324 7.85858 5.44721 8.10557L9.44721 10.1056C9.94119 10.3526 10.1414 10.9532 9.89443 11.4472C9.64744 11.9412 9.04676 12.1414 8.55279 11.8944L4.55279 9.89443C4.05881 9.64744 3.85858 9.04677 4.10557 8.55279ZM46.6 3.79996C47.0418 3.46859 47.1314 2.84179 46.8 2.39996C46.4686 1.95814 45.8418 1.86859 45.4 2.19996L41.4 5.19996C40.9582 5.53134 40.8686 6.15814 41.2 6.59996C41.5314 7.04179 42.1582 7.13134 42.6 6.79996L46.6 3.79996ZM42.0513 18.6837C42.2259 18.1598 42.7923 17.8766 43.3162 18.0513L46.3162 19.0513C46.8402 19.2259 47.1233 19.7922 46.9487 20.3162C46.774 20.8401 46.2077 21.1233 45.6838 20.9486L42.6838 19.9486C42.1598 19.774 41.8766 19.2077 42.0513 18.6837ZM8.31621 23.9486C8.84015 23.774 9.12331 23.2077 8.94867 22.6837C8.77402 22.1598 8.2077 21.8766 7.68375 22.0513L4.68375 23.0513C4.15981 23.2259 3.87665 23.7922 4.0513 24.3162C4.22595 24.8401 4.79227 25.1233 5.31621 24.9486L8.31621 23.9486Z"/>
</svg>
