<svg width="100" height="100" viewBox="0 0 100 100" xmlns="http://www.w3.org/2000/svg">
<path fill-rule="evenodd" clip-rule="evenodd" d="M73.1064 3.35669L73.1063 3.35689L73.1062 3.3571L73.1053 3.3597L73.1011 3.37203L73.0831 3.42466C73.0668 3.47197 73.042 3.54345 73.0091 3.63749C72.9434 3.82558 72.8451 4.10382 72.7167 4.45931C72.4598 5.17049 72.0829 6.18973 71.6055 7.41409C70.649 9.86695 69.2965 13.1239 67.7045 16.3692C66.1033 19.6333 64.3019 22.7978 62.4638 25.1173C61.5448 26.277 60.6688 27.1582 59.8629 27.7354C59.0524 28.3159 58.4394 28.5001 58.0001 28.5001C54.6008 28.5001 52.5006 29.9392 51.3162 31.5791C50.7556 32.3553 50.4367 33.1236 50.2564 33.6964L50.249 33.7201C49.2884 34.3364 48.198 35.1682 47.0046 36.1762L19.4142 8.58579L18 10C19.4142 8.58579 19.4139 8.58543 19.4135 8.58507L19.4127 8.58431L19.4111 8.58265L19.4072 8.57876L19.3971 8.56878L19.3679 8.54033C19.3445 8.51773 19.3133 8.48792 19.2748 8.45195C19.1978 8.38013 19.0908 8.283 18.9578 8.16899C18.6939 7.94275 18.3167 7.64079 17.8594 7.3359C17.0098 6.76949 15.6012 6 14 6C12.5605 6 10.8605 6.52082 9.48882 7.63527C8.05503 8.80022 7 10.6057 7 13C7 14.5328 7.55029 16.3641 8.32828 18.2406C9.12855 20.1708 10.2616 22.3609 11.6168 24.6807C14.3294 29.3239 18.0096 34.6186 21.9267 39.6098C25.2749 43.876 28.8274 47.9604 32.1343 51.2514C30.2929 53.3062 28.3997 55.4664 26.4832 57.6965L25.7705 58.5258C21.0449 64.0233 16.5334 69.2717 13.1575 73.7164C11.3848 76.0502 9.88361 78.2159 8.81747 80.1203C7.79374 81.9489 7.00008 83.8265 7.00008 85.5001C7.00008 88.2211 7.92262 90.4001 9.50183 91.8916C11.0524 93.356 13.0694 94.0001 15.0001 94.0001C16.56 94.0001 18.0285 93.8713 19.4654 93.2929C20.9195 92.7074 22.1624 91.7358 23.4253 90.3441C25.7411 87.7921 28.5027 83.3721 33.052 76.0908L33.6961 75.0601C36.8871 69.9543 40.6148 64.2362 44.2977 58.9964C46.454 58.9445 48.0346 58.3268 49.351 57.3648C49.8737 56.9828 50.3317 56.5635 50.7419 56.1548L71.3114 86.0742L71.3314 86.1076C71.3698 86.1717 71.424 86.2603 71.4934 86.3701C71.6322 86.5893 71.8327 86.8942 72.0913 87.2562C72.606 87.9768 73.3636 88.942 74.3358 89.9142C76.2293 91.8078 79.2135 94 83 94C84.9001 94 87.1143 93.377 88.8915 91.9229C90.7311 90.4178 92 88.0994 92 85C92 83.0524 91.352 81.4599 90.7365 80.3827C90.4264 79.84 90.1147 79.4106 89.8742 79.11C89.7535 78.9591 89.6493 78.8389 89.5701 78.7512C89.5305 78.7074 89.497 78.6715 89.4707 78.6439C89.4654 78.6382 89.4603 78.6329 89.4555 78.628C89.4486 78.6208 89.4423 78.6143 89.4368 78.6086L89.424 78.5956L89.4187 78.5903L89.4164 78.588L89.4153 78.5868C89.4147 78.5863 89.4142 78.5858 88 80L89.4142 78.5858L55.6232 44.7948C56.5353 43.9006 57.3207 43.2391 57.9667 42.807C58.6378 42.3581 58.9563 42.2947 58.9965 42.2867C59.0008 42.2858 59.0019 42.2856 59.0001 42.2856C60.4505 42.2856 61.9292 42.6361 63.7664 43.0715L63.84 43.0889C65.6344 43.5142 67.7213 44.0001 70.0001 44.0001C74.7257 44.0001 78.6484 41.6246 81.7803 38.3916C84.9037 35.1675 87.3904 30.9461 89.311 26.8489C91.2401 22.7336 92.6472 18.636 93.5709 15.5784C94.0337 14.0464 94.3774 12.7676 94.6063 11.8683C94.7207 11.4184 94.8066 11.063 94.8643 10.8177C94.8932 10.6951 94.9151 10.5999 94.93 10.5342L94.9471 10.458L94.9518 10.4369L94.9531 10.4307L94.9536 10.4287C94.9537 10.428 94.9539 10.4274 93.0001 10.0001L94.9539 10.4274C95.1899 9.34839 94.5065 8.2823 93.4275 8.04626C92.3486 7.81025 91.2827 8.49338 91.0464 9.57211L91.0464 9.57227L91.0463 9.5723L91.0463 9.57266L91.0458 9.57482L91.0428 9.58846L91.029 9.64946C91.0165 9.70486 90.9971 9.7894 90.9708 9.90112C90.9182 10.1246 90.838 10.4567 90.7298 10.8818C90.5133 11.7325 90.1852 12.9538 89.7418 14.4217C88.8529 17.3641 87.5101 21.2665 85.6891 25.1512C83.8597 29.054 81.5964 32.8326 78.9073 35.6085C76.2268 38.3755 73.2744 40.0001 70.0001 40.0001C68.2484 40.0001 66.5852 39.6287 64.7623 39.1967L64.5003 39.1345C62.8188 38.7348 60.9294 38.2856 59.0001 38.2856C57.8018 38.2856 56.6657 38.8648 55.7427 39.4822C54.8062 40.1087 53.8134 40.9652 52.7946 41.9662L49.8434 39.015C51.0967 37.9699 52.1495 37.2049 52.9714 36.7484C53.5296 36.4382 53.9057 35.8805 53.9847 35.2478L53.988 35.228C53.9895 35.2195 53.9915 35.2088 53.994 35.1959C54.0061 35.135 54.0299 35.0305 54.0718 34.8975C54.1571 34.6265 54.3071 34.2698 54.5589 33.921C54.9996 33.3109 55.8993 32.5001 58.0001 32.5001C59.5607 32.5001 60.979 31.8561 62.192 30.9874C62.6088 30.6888 63.0165 30.3531 63.4146 29.9875C64.1118 30.5208 65.0725 31.2232 66.1636 31.9292C67.2772 32.6498 68.5626 33.3976 69.8665 33.9713C71.1376 34.5306 72.5928 35.0001 74.0001 35.0001L74.7879 34.8383C77.1429 33.8291 79.1052 31.4181 80.6822 28.8853C82.3157 26.2619 83.7717 23.1118 84.9793 20.1246C86.1915 17.126 87.1772 14.2316 87.8589 12.0914C88.2002 11.0197 88.4665 10.1334 88.6481 9.51289C88.7389 9.20256 88.8086 8.95851 88.8559 8.79078C88.8795 8.7069 88.8976 8.64209 88.9099 8.5976L88.9241 8.54624L88.928 8.53228L88.929 8.52828L88.9294 8.52703C88.9295 8.52662 88.9296 8.52629 87.0001 8.00005L88.9296 8.52629C89.2202 7.46064 88.5919 6.36116 87.5263 6.07053C86.4607 5.77992 85.3613 6.40808 85.0706 7.47358L85.0705 7.47382L85.0705 7.47384L85.07 7.47584L85.0673 7.48578L85.0553 7.52891C85.0445 7.56785 85.0281 7.62695 85.0061 7.70494C84.9621 7.86094 84.896 8.09247 84.8091 8.38957C84.6352 8.98392 84.378 9.83976 84.0475 10.8774C83.3855 12.956 82.4336 15.7491 81.2708 18.6255C80.1034 21.5133 78.747 24.4257 77.2866 26.7711C75.9324 28.946 74.6612 30.3461 73.5893 30.9705C73.1209 30.908 72.5395 30.7451 71.8597 30.4713C72.9014 29.3588 73.844 28.0334 74.6867 26.6672C76.3149 24.0275 77.7689 20.8995 78.9765 17.944C80.1882 14.9784 81.1737 12.1323 81.8555 10.0315C82.1969 8.97959 82.4632 8.11104 82.6448 7.50339C82.7357 7.1995 82.8053 6.96064 82.8527 6.7965C82.8763 6.71443 82.8944 6.65102 82.9068 6.60748L82.921 6.55721L82.9248 6.54354L82.9259 6.53962L82.9263 6.53839C82.9264 6.53798 82.9265 6.53765 81.0001 6.00005L82.9265 6.53765C83.2234 5.47374 82.6016 4.37057 81.5377 4.07366C80.4738 3.77678 79.3707 4.39844 79.0737 5.46221L79.0737 5.46246L79.0731 5.46441L79.0704 5.47409L79.0585 5.5162C79.0477 5.55423 79.0313 5.61198 79.0093 5.68823C78.9653 5.84074 78.8992 6.06722 78.8123 6.35804C78.6385 6.93985 78.3814 7.77833 78.0509 8.79676C77.3889 10.8366 76.4369 13.5842 75.2737 16.4311C74.1063 19.2881 72.7477 22.1913 71.2822 24.5673C70.1938 26.3319 69.1417 27.6451 68.1823 28.4705C67.3763 27.9427 66.6492 27.4181 66.0743 26.9846C67.9924 24.4275 69.772 21.2367 71.2956 18.1309C72.9536 14.7512 74.3511 11.3832 75.3322 8.86727C75.8235 7.60725 76.2122 6.55618 76.4788 5.81814C76.6121 5.44902 76.715 5.15793 76.7849 4.95783C76.8199 4.85778 76.8467 4.78046 76.8649 4.72749L76.8859 4.66649L76.8915 4.65006L76.8931 4.64543L76.8936 4.64402C76.8937 4.64357 76.8938 4.64322 75.0001 4.00006L76.8938 4.64322C77.249 3.59732 76.6891 2.4615 75.6432 2.10629C74.5974 1.7511 73.4617 2.31093 73.1064 3.35669ZM40.2322 57.8307C36.7535 62.834 33.2877 68.1663 30.3041 72.9401L29.9818 73.4557C25.1267 81.2244 22.532 85.3762 20.4631 87.656C19.4574 88.7643 18.6909 89.2927 17.9716 89.5823C17.2349 89.8788 16.3657 90.0001 15.0001 90.0001C13.9307 90.0001 12.9477 89.6441 12.2483 88.9835C11.5775 88.35 11.0001 87.279 11.0001 85.5001C11.0001 84.9236 11.3314 83.8182 12.3077 82.0743C13.2416 80.4062 14.6154 78.41 16.3428 76.1358C19.643 71.7909 24.0817 66.6269 28.8456 61.0846L29.5169 60.3036C31.396 58.117 33.2482 56.0031 35.0464 53.9954C36.4702 55.2545 37.8407 56.3333 39.1115 57.1569C39.4778 57.3943 39.8525 57.6217 40.2322 57.8307ZM16.5865 11.4149L16.5862 11.4147C16.5793 11.4081 16.5656 11.3949 16.5455 11.3762C16.5053 11.3386 16.4404 11.2795 16.3547 11.206C16.1811 11.0572 15.9333 10.8592 15.6406 10.6641C14.9902 10.2305 14.3988 10 14 10C13.4395 10 12.6395 10.2292 12.0112 10.7397C11.445 11.1998 11 11.8943 11 13C11 13.7172 11.2935 14.9484 12.0233 16.7086C12.7308 18.4152 13.7696 20.4359 15.0707 22.663C17.6706 27.1136 21.2404 32.2564 25.0733 37.1402C28.9086 42.0271 32.9644 46.6 36.5229 49.9304C38.3055 51.5988 39.9202 52.9144 41.2869 53.8001C42.7329 54.7372 43.6129 55 44 55C45.4797 55 46.3146 54.6295 46.991 54.1352C47.3679 53.8598 47.733 53.517 48.1587 53.0774C48.2948 52.9368 48.4584 52.7632 48.6356 52.5752L48.6358 52.575C48.9362 52.2561 49.2755 51.896 49.5858 51.5858C50.0059 51.1656 50.5912 50.9541 51.1829 51.0084C51.7746 51.0627 52.3115 51.3773 52.6481 51.8669L74.6481 83.8669C74.6787 83.9115 74.7075 83.9573 74.7345 84.0042L74.7347 84.0046L74.7354 84.0058L74.7357 84.0064L74.7359 84.0067L74.7365 84.0077L74.7378 84.0099C74.7419 84.017 74.7498 84.0304 74.7614 84.0496C74.7845 84.0881 74.8221 84.1498 74.8738 84.2315C74.9772 84.395 75.1361 84.6371 75.3462 84.9313C75.769 85.5232 76.3864 86.308 77.1642 87.0858C78.7707 88.6922 80.7865 90 83 90C84.0999 90 85.3857 89.623 86.3585 88.8271C87.2689 88.0822 88 86.9006 88 85C88 83.9476 87.648 83.0401 87.2635 82.3673C87.0736 82.035 86.8853 81.7769 86.7508 81.6088C86.684 81.5253 86.632 81.4658 86.6017 81.4324C86.5958 81.4258 86.5907 81.4202 86.5866 81.4158C86.5819 81.4107 86.5784 81.407 86.5762 81.4046L86.5747 81.403L86.5742 81.4025L86.5732 81.4014L16.5913 11.4197L16.5899 11.4183L16.5882 11.4166L16.5871 11.4155L16.5865 11.4149Z"/>
</svg>
