<svg width="100" height="100" viewBox="0 0 100 100" xmlns="http://www.w3.org/2000/svg">
<path fill-rule="evenodd" clip-rule="evenodd" d="M21.379 15.0756C17.488 15.444 14.0059 17.1661 11.4383 20.3757C8.56165 23.9714 7 29.2211 7 36.0001C7 45.3981 8.09138 53.7653 11.1871 60.4692C14.0636 66.6983 18.6427 71.4236 25.4511 74.1904L21.9254 84.0626C21.1414 86.2577 21.9734 88.7643 24.0782 89.961C27.3224 91.8055 33.9819 95.3071 40.5149 96.9403C47.0284 98.5687 55.2364 98.9166 59.3271 98.9877C61.9039 99.0324 64.0026 97.0875 64.2795 94.5956L65.7988 80.922C69.6213 80.5871 73.4281 79.1504 76.4142 76.1643C79.8816 72.6968 82 67.3838 82 60.0001C82 58.0965 81.7819 56.5658 81.5309 55.4351C84.3688 54.5107 86.8501 52.516 88.7398 49.9301C91.387 46.3076 93 41.3857 93 36C93 34.1228 92.3907 31.6777 90.8353 29.6556C89.5229 27.9495 87.5775 26.6053 84.9465 26.159C84.739 22.7082 83.9057 19.6212 82.0786 17.2721C79.9005 14.4716 76.5839 13.0589 72.2738 13.0018C71.9125 11.6755 71.3791 10.3305 70.5971 9.07039C68.4056 5.53881 64.4706 2.99996 58 2.99996C55.7157 2.99996 53.7084 3.58129 52.2971 4.1407C52.1028 4.21773 51.9185 4.29486 51.7449 4.37072C49.3887 2.33928 46.2101 1 42.0002 1C35.8313 1 31.0604 2.01731 27.5502 4.65C24.3512 7.04923 22.4846 10.5714 21.379 15.0756ZM25.5055 15.1105C28.8102 15.3869 32.5923 16.1705 36.3984 17.3327C37.2672 14.5052 39.3265 12.6994 40.2373 11.9007C40.3887 11.7679 40.5084 11.663 40.5856 11.5858L43.414 14.4142C43.2047 14.6236 42.9764 14.8346 42.7403 15.0527C41.7449 15.9726 40.6114 17.02 40.1797 18.6104C42.1331 19.3352 44.0527 20.15 45.8752 21.0369C48.5811 22.3539 51.1365 23.8598 53.3071 25.5149C53.678 24.3184 54.0002 22.7681 54.0002 21C54.0002 18.2267 53.5171 14.0981 51.7337 10.739C50.022 7.5149 47.1428 5 42.0002 5C36.1691 5 32.4399 5.98269 29.9502 7.85C27.921 9.37185 26.4808 11.6602 25.5055 15.1105ZM56.5155 28.3907C58.5554 30.5948 60 33.1666 60 36.0001C60 39.3958 58.8341 42.4221 56.6711 44.6063C56.1869 45.0951 55.6595 45.535 55.0937 45.9233C55.3996 45.9724 55.7037 46 56 46C59.5269 46 62.703 43.8941 65.1042 39.3203C67.5246 34.7101 69 27.817 69 19C69 16.6037 68.6808 13.5684 67.1984 11.1795C65.8217 8.9611 63.2567 6.99996 58 6.99996C56.7164 6.99996 55.5153 7.26126 54.5194 7.58824C54.7877 8.0037 55.0364 8.42967 55.2666 8.86329C57.4832 13.0383 58.0002 17.9097 58.0002 21C58.0002 23.6296 57.4415 25.8587 56.8856 27.4293C56.7607 27.7823 56.6353 28.1036 56.5155 28.3907ZM49.3343 47.9391C48.8976 47.9796 48.4526 48.0001 48 48.0001C46.7073 48.0001 45.1946 47.6586 43.6375 47.1509C48.1453 52.0463 52.0455 58.2147 52.0455 65.0001H48.0455C48.0455 58.1122 42.8014 51.426 36.9839 46.2174C34.1393 43.6705 31.2855 41.5902 29.1385 40.145C28.728 39.8687 28.344 39.616 27.9916 39.3883C27.2459 38.9415 26.6374 38.5683 26.2106 38.3037C25.9901 38.167 25.818 38.0592 25.7002 37.9851L25.565 37.8998L25.5293 37.8773L25.5198 37.8712L25.5171 37.8695L25.5163 37.8689C25.516 37.8688 25.5158 37.8686 26.5905 36.1819C27.5703 34.4384 27.5709 34.4387 27.5715 34.439L27.5732 34.44L27.5781 34.4428L27.5943 34.452L27.6518 34.4847C27.701 34.5129 27.7718 34.5537 27.8628 34.6069C28.0447 34.7132 28.3074 34.8688 28.6394 35.0712C29.0353 35.3126 29.5303 35.6207 30.1046 35.9912L30.1188 35.9997C31.6387 36.9091 33.7226 38.1189 35.9864 39.3263C38.2563 40.5369 40.6748 41.7275 42.8699 42.6104C45.1366 43.5222 46.9151 44.0001 48 44.0001C50.5265 44.0001 52.4949 43.1386 53.8289 41.7916C55.1659 40.4416 56 38.4679 56 36.0001C56 34.3548 55.0152 32.4355 52.8371 30.3545C50.6947 28.3075 47.6414 26.3451 44.1248 24.6336C37.0622 21.1964 28.6144 19.0001 23 19.0001C19.5407 19.0001 16.6423 20.2738 14.5617 22.8744C12.4383 25.5287 11 29.779 11 36.0001C11 45.1701 12.0791 52.8597 14.8186 58.7922C17.5055 64.6108 21.8183 68.8111 28.5584 71.0779C32.0018 71.9217 35.0994 71.4835 37.3659 70.8147C38.5048 70.4787 39.4189 70.0886 40.0395 69.7877C40.3491 69.6376 40.5835 69.5108 40.734 69.4256C40.8092 69.383 40.8633 69.351 40.895 69.3318L40.9235 69.3145C40.9229 69.3149 40.9223 69.3153 42 71C43.0778 72.6848 43.0771 72.6852 43.0764 72.6857L43.0749 72.6867L43.0714 72.6889L43.0627 72.6944L43.0383 72.7097C43.0273 72.7165 43.0143 72.7246 42.9993 72.7337C42.9881 72.7406 42.9758 72.7481 42.9624 72.7561C42.8998 72.7939 42.8134 72.8449 42.7043 72.9067C42.4862 73.0301 42.1766 73.1969 41.7845 73.387C41.0016 73.7666 39.8817 74.2429 38.4978 74.6512C36.1198 75.3529 32.9181 75.8657 29.3015 75.3022L25.6923 85.408C25.5309 85.8598 25.7166 86.2912 26.0552 86.4837C29.2294 88.2884 35.5011 91.5638 41.4851 93.0598C47.5227 94.5692 55.3368 94.9178 59.3965 94.9883C59.8393 94.9959 60.2473 94.6636 60.3039 94.1539L62.0122 78.7792C62.1248 77.7663 62.9809 77.0001 64 77.0001C67.5945 77.0001 71.0408 75.8808 73.5858 73.3358C76.1184 70.8033 78 66.6163 78 60.0001C78 58.2176 77.7722 56.8787 77.5584 56.0141C77.5565 56.0064 77.5546 55.9987 77.5527 55.9911C74.6871 55.8752 72.7878 54.6518 71.6199 53.317C71.4512 53.1243 71.2999 52.9317 71.1642 52.743C69.3643 53.5678 67.5915 54 65.9999 54C61.7918 54 57.6396 52.1001 55.1754 49.9624C53.5845 49.8199 52.1193 49.2971 51.0628 48.8276C50.4268 48.5449 49.8974 48.2626 49.5234 48.0489C49.4554 48.0101 49.3922 47.9733 49.3343 47.9391ZM26.5905 36.1819L25.5158 37.8686C24.6024 37.2867 24.3182 36.0834 24.8747 35.1542C25.4312 34.2251 26.6262 33.9078 27.5703 34.4384L26.5905 36.1819ZM78.2551 47.317C81.7303 43.3453 84.4643 37.6338 84.9298 30.2489C86.1873 30.6039 87.0547 31.3014 87.6648 32.0945C88.6094 33.3224 89 34.8772 89 36C89 40.6144 87.6131 44.6924 85.5103 47.57C83.3996 50.4583 80.6928 52 78 52C76.1167 52 75.1526 51.28 74.6302 50.683L74.6257 50.6779C75.8908 49.7402 77.1192 48.6151 78.2551 47.317ZM61.0668 48.9241C62.5708 49.5646 64.2935 50 65.9999 50C68.2492 50 71.9926 48.3998 75.2448 44.683C78.4245 41.0489 80.9999 35.5174 80.9999 28C80.9999 24.1899 80.2747 21.4681 78.9212 19.7279C77.7611 18.2363 75.9291 17.2021 72.9331 17.0265C72.9835 17.7397 73 18.4053 73 19C73 28.183 71.4755 35.7898 68.6458 41.1796C66.7444 44.8014 64.1857 47.5179 61.0668 48.9241Z"/>
</svg>
